<svg width="78.000000" height="34.000000" viewBox="0 0 78 34" fill="none" xmlns="http://www.w3.org/2000/svg" xmlns:xlink="http://www.w3.org/1999/xlink">
	<desc>
			Created with Pixso.
	</desc>
	<defs>
		<clipPath id="clip23_31887">
			<rect id="Logo" width="77.916641" height="34.000000" transform="translate(-0.458008 0.000000)" fill="white" fill-opacity="0"/>
		</clipPath>
	</defs>
	<rect id="Logo" width="77.916641" height="34.000000" transform="translate(-0.458008 0.000000)" fill="#FFFFFF" fill-opacity="0"/>
	<g clip-path="url(#clip23_31887)">
		<path id="Vector" d="M44.29 24.45C45.76 24.28 48.96 23.9 49.53 24.63C50.11 25.37 48.89 28.41 48.35 29.77L48.34 29.77C48.18 30.18 48.53 30.35 48.91 30.04C51.33 28.01 51.95 23.78 51.45 23.16C50.96 22.56 46.73 22.03 44.16 23.85C43.76 24.12 43.83 24.51 44.27 24.45L44.29 24.45ZM30.99 31.87C36.62 31.87 43.15 30.1 47.66 26.77C48.4 26.22 47.76 25.4 47 25.72C41.95 27.86 36.46 28.9 31.46 28.9C24.06 28.9 16.89 26.87 11.09 23.5C10.59 23.2 10.21 23.72 10.63 24.1C16 28.95 23.1 31.87 30.99 31.87Z" fill="#4C4C4D" fill-opacity="1.000000" fill-rule="evenodd"/>
		<path id="Vector" d="M8.46 22.07C8.64 22.16 8.87 22.15 9.03 22.01L9.04 22.02C9.52 21.59 10.39 20.83 10.88 20.42C11.07 20.26 11.04 20 10.88 19.79C10.45 19.18 9.98 18.69 9.98 17.56L9.98 13.82C9.98 13.69 9.98 13.56 9.98 13.44C9.99 12 10 10.69 8.92 9.69C8 8.81 6.47 8.5 5.31 8.5C3.02 8.5 0.47 9.35 -0.06 12.17C-0.12 12.47 0.1 12.63 0.3 12.67L2.63 12.92C2.84 12.91 3 12.7 3.04 12.48C3.24 11.51 4.06 11.04 4.97 11.04C5.46 11.04 6.03 11.22 6.32 11.67C6.62 12.11 6.62 12.7 6.61 13.23C6.61 13.29 6.61 13.35 6.61 13.4L6.61 13.72C5.22 13.87 3.4 13.97 2.1 14.55C0.59 15.2 -0.46 16.52 -0.46 18.47C-0.46 20.97 1.11 22.21 3.13 22.21C4.84 22.21 5.77 21.81 7.09 20.47C7.52 21.1 7.67 21.41 8.46 22.07ZM40.5 22.01C40.34 22.15 40.11 22.16 39.94 22.07C39.14 21.41 38.99 21.1 38.56 20.47C37.24 21.81 36.31 22.21 34.6 22.21C32.58 22.21 31.01 20.97 31.01 18.47C31.01 16.52 32.06 15.2 33.57 14.55C34.87 13.97 36.69 13.87 38.08 13.72L38.08 13.4C38.08 13.35 38.08 13.29 38.08 13.23C38.09 12.7 38.09 12.11 37.79 11.67C37.5 11.22 36.94 11.04 36.44 11.04C35.53 11.04 34.71 11.51 34.51 12.48C34.47 12.7 34.31 12.91 34.09 12.92L31.77 12.67C31.57 12.63 31.35 12.47 31.41 12.17C31.94 9.35 34.5 8.5 36.78 8.5C37.95 8.5 39.47 8.81 40.39 9.69C41.47 10.69 41.46 12 41.45 13.44C41.45 13.56 41.45 13.69 41.45 13.82L41.45 17.56C41.45 18.69 41.92 19.18 42.36 19.79C42.51 20 42.54 20.26 42.35 20.42C41.86 20.83 40.99 21.59 40.51 22.02L40.5 22.01ZM13.19 22.04L15.59 22.04C15.84 22.04 16.05 21.85 16.05 21.6L16.05 15.07C16.05 15.02 16.05 14.97 16.05 14.91C16.05 13.51 16.04 11.67 17.71 11.67C19.24 11.67 19.21 13.3 19.19 14.63C19.19 14.78 19.19 14.93 19.19 15.07L19.19 21.6C19.19 21.84 19.38 22.03 19.62 22.04L22.02 22.04C22.28 22.04 22.48 21.85 22.48 21.6L22.48 15.07C22.48 15.01 22.48 14.96 22.48 14.9C22.48 14.21 22.48 13.28 22.71 12.71C22.95 12.09 23.56 11.7 24.14 11.7C24.84 11.7 25.37 11.93 25.55 12.76C25.64 13.16 25.63 14.07 25.62 14.69C25.62 14.84 25.62 14.97 25.62 15.07L25.62 21.6C25.62 21.84 25.81 22.03 26.05 22.04L28.45 22.04C28.71 22.04 28.91 21.85 28.91 21.6L28.91 13.82C28.91 13.63 28.92 13.44 28.92 13.24C28.94 12.08 28.96 10.85 28.31 9.96C27.64 9.03 26.54 8.61 25.53 8.61C24.12 8.61 22.8 9.34 22.22 10.9C21.54 9.34 20.6 8.61 19.1 8.61C17.62 8.61 16.52 9.34 15.94 10.9L15.89 10.9L15.89 9.29C15.88 9.06 15.69 8.88 15.46 8.87L13.22 8.87C12.96 8.87 12.76 9.07 12.76 9.32L12.76 21.64C12.78 21.86 12.96 22.03 13.19 22.04ZM59.96 8.61C63.52 8.61 65.45 11.67 65.45 15.56C65.45 19.32 63.32 22.3 59.96 22.3C56.46 22.3 54.55 19.24 54.55 15.43C54.55 11.59 56.48 8.61 59.96 8.61ZM67.68 22.04L70.07 22.04C70.32 22.04 70.53 21.85 70.54 21.6L70.54 14.96C70.54 14.13 70.58 13.38 70.92 12.63C71.18 12.04 71.72 11.65 72.3 11.65C73.83 11.65 73.82 13.32 73.81 14.64C73.81 14.75 73.81 14.86 73.81 14.96L73.81 21.66C73.83 21.87 74.01 22.03 74.23 22.04L76.64 22.04C76.88 22.04 77.08 21.87 77.1 21.66L77.1 13.9C77.1 12.71 77.1 11.05 76.47 10.07C75.8 9 74.75 8.61 73.67 8.61C72.01 8.61 71.07 9.42 70.4 11.1L70.36 11.1L70.36 9.22C70.31 9.03 70.14 8.88 69.93 8.87L67.7 8.87C67.46 8.87 67.26 9.05 67.24 9.27L67.24 21.6C67.24 21.84 67.44 22.03 67.68 22.04ZM44.37 11.05L44.37 9.29C44.37 9.02 44.57 8.84 44.82 8.84L52.71 8.84C52.96 8.84 53.16 9.02 53.16 9.29L53.16 10.79C53.16 11.05 52.95 11.38 52.57 11.9L48.48 17.74C50 17.7 51.6 17.93 52.98 18.71C53.29 18.88 53.38 19.14 53.4 19.39L53.4 21.27C53.4 21.53 53.12 21.83 52.82 21.67C50.39 20.4 47.17 20.26 44.48 21.69C44.21 21.84 43.92 21.54 43.92 21.28L43.92 19.5C43.92 19.21 43.93 18.72 44.21 18.28L48.95 11.49L44.83 11.49C44.57 11.49 44.37 11.31 44.37 11.05ZM59.98 11.13C58.21 11.13 58.1 13.54 58.1 15.04L58.1 15.1C58.1 16.62 58.1 19.76 59.96 19.76C61.82 19.76 61.91 17.17 61.91 15.59C61.91 14.55 61.86 13.31 61.55 12.32C61.28 11.46 60.74 11.13 59.98 11.13ZM6.61 16.29C6.61 16.24 6.61 16.2 6.61 16.16L6.61 15.64C4.87 15.64 3.04 16.01 3.04 18.06C3.04 19.09 3.58 19.8 4.5 19.8C5.17 19.8 5.78 19.38 6.16 18.71C6.61 17.91 6.61 17.17 6.61 16.29ZM38.08 16.16C38.08 16.2 38.08 16.24 38.08 16.29C38.08 17.17 38.08 17.91 37.63 18.71C37.25 19.38 36.64 19.8 35.97 19.8C35.05 19.8 34.51 19.09 34.51 18.06C34.51 16.01 36.34 15.64 38.08 15.64L38.08 16.16Z" fill="#4C4C4D" fill-opacity="1.000000" fill-rule="evenodd"/>
	</g>
</svg>
