<svg width="62.000000" height="62.000000" viewBox="0 0 62 62" fill="none" xmlns="http://www.w3.org/2000/svg" xmlns:xlink="http://www.w3.org/1999/xlink">
	<desc>
			Created with Pixso.
	</desc>
	<defs>
		<clipPath id="clip95_504">
			<rect id="Icon" width="34.000000" height="34.000000" transform="translate(13.500000 14.000000)" fill="white" fill-opacity="0"/>
		</clipPath>
	</defs>
	<rect id="Icon Container" rx="6.000000" width="62.000000" height="62.000000" transform="translate(-0.500000 0.000000)" fill="#FFF4E6" fill-opacity="1.000000"/>
	<g clip-path="url(#clip95_504)">
		<path id="Vector 449 (Stroke)" d="M34.2 16.25C34.63 16.49 34.84 16.99 34.71 17.46L31.89 27.81L42.18 27.81C42.61 27.81 42.99 28.06 43.16 28.45C43.33 28.83 43.25 29.29 42.96 29.6L28.08 45.53C27.75 45.89 27.22 45.97 26.79 45.74C26.36 45.5 26.15 45 26.28 44.53L29.1 34.18L18.81 34.18C18.38 34.18 18 33.93 17.83 33.54C17.66 33.16 17.74 32.7 18.03 32.4L32.91 16.46C33.24 16.1 33.77 16.02 34.2 16.25Z" fill="#262626" fill-opacity="1.000000" fill-rule="evenodd"/>
	</g>
</svg>
