<svg width="91.000000" height="34.000000" viewBox="0 0 91 34" fill="none" xmlns="http://www.w3.org/2000/svg" xmlns:xlink="http://www.w3.org/1999/xlink">
	<desc>
			Created with Pixso.
	</desc>
	<defs>
		<clipPath id="clip23_31918">
			<rect id="Logo" width="91.375000" height="34.000000" transform="translate(-0.616211 0.000000)" fill="white" fill-opacity="0"/>
		</clipPath>
	</defs>
	<rect id="Logo" width="91.375000" height="34.000000" transform="translate(-0.616211 0.000000)" fill="#FFFFFF" fill-opacity="0"/>
	<g clip-path="url(#clip23_31918)">
		<path id="Vector" d="M14.43 4.3L0.86 5.29C-0.23 5.39 -0.62 6.09 -0.62 6.95L-0.62 21.75C-0.62 22.41 -0.38 22.98 0.19 23.74L3.39 27.88C3.91 28.54 4.38 28.69 5.39 28.64L21.14 27.68C22.47 27.58 22.84 26.97 22.84 25.93L22.84 9.28C22.84 8.71 22.6 8.57 21.88 8.05L17.56 5.02C16.52 4.25 16.08 4.16 14.43 4.3ZM5.72 9C4.44 9.09 4.16 9.11 3.43 8.52L1.57 7.06C1.38 6.88 1.48 6.64 1.95 6.59L14.98 5.63C16.07 5.53 16.65 5.92 17.08 6.25L19.32 7.85C19.41 7.89 19.66 8.18 19.37 8.18L5.9 8.99C5.83 8.99 5.78 9 5.72 9ZM66.24 9.69C66.24 10.55 65.53 11.25 64.66 11.25C63.8 11.25 63.09 10.55 63.09 9.69C63.09 8.81 63.8 8.11 64.66 8.11C65.53 8.11 66.24 8.81 66.24 9.69ZM31.21 14.32L31.21 24.63L28.58 24.63L28.58 9.49L30.95 9.49L38.45 19.77L38.63 19.77L38.63 9.49L41.26 9.49L41.26 24.63L38.9 24.63L31.39 14.32L31.21 14.32ZM4.24 25.79L4.24 11.65C4.24 11.03 4.43 10.74 5 10.69L20.47 9.78C20.99 9.73 21.24 10.07 21.24 10.69L21.24 24.73C21.24 25.35 21.14 25.87 20.28 25.91L5.47 26.77C4.61 26.82 4.24 26.55 4.24 25.79ZM56.66 13.23L56.66 10.34L59.29 10.34L59.29 13.23L61.78 13.23L61.78 15.3L59.29 15.3L59.29 20.94C59.29 22.08 59.78 22.58 60.89 22.58C61.25 22.58 61.46 22.55 61.78 22.52L61.78 24.55C61.38 24.63 60.89 24.68 60.39 24.68C57.71 24.68 56.66 23.8 56.66 21.56L56.66 15.3L54.83 15.3L54.83 13.23L56.66 13.23ZM18.42 13.32C18.85 13.27 18.94 12.83 18.85 12.41L15.58 12.59C15.11 12.64 14.72 13.03 14.82 13.54L16.05 13.69L16.05 20.22L11.19 12.83L7.67 13.07C7 13.12 6.76 13.74 6.85 14.16L8.04 14.26L8.04 23.6L7.18 23.84C6.85 23.94 6.76 24.41 6.85 24.6L10.14 24.41C11.32 24.41 11.32 23.55 11.32 23.55L9.84 23.22L9.84 16.15L14.51 23.47C15.08 24.18 15.27 24.42 16.04 24.42C16.52 24.42 17.09 24.23 17.71 23.9L17.71 13.46L18.42 13.32ZM54.27 18.89C54.27 22.63 52.15 24.86 48.68 24.86C45.22 24.86 43.12 22.63 43.1 18.89C43.1 15.17 45.25 12.91 48.68 12.91C52.15 12.91 54.27 15.17 54.27 18.89ZM78.76 18.89C78.76 22.63 76.63 24.86 73.17 24.86C69.68 24.86 67.58 22.63 67.58 18.89C67.58 15.17 69.73 12.91 73.17 12.91C76.63 12.91 78.76 15.17 78.76 18.89ZM82.93 24.63L80.3 24.63C80.3 24.63 80.3 13.15 80.28 13.15L82.82 13.15L82.82 14.99L83.01 14.99C83.56 13.69 84.71 12.91 86.44 12.91C89.02 12.91 90.43 14.45 90.43 17.2L90.43 24.63L87.81 24.63L87.81 17.82C87.81 16.08 87.07 15.2 85.47 15.2C83.92 15.2 82.93 16.26 82.93 17.95L82.93 24.63ZM65.98 24.63L63.35 24.63L63.35 13.15L65.98 13.15L65.98 24.63ZM45.8 18.89C45.8 21.3 46.85 22.68 48.68 22.68C50.52 22.68 51.57 21.3 51.57 18.89C51.57 16.5 50.52 15.1 48.68 15.1C46.85 15.1 45.8 16.5 45.8 18.89ZM70.28 18.89C70.28 21.3 71.33 22.68 73.17 22.68C74.98 22.68 76.03 21.3 76.05 18.89C76.05 16.5 74.98 15.1 73.17 15.1C71.33 15.1 70.28 16.5 70.28 18.89Z" fill="#4C4C4D" fill-opacity="1.000000" fill-rule="evenodd"/>
	</g>
</svg>
