<svg width="965.000000" height="244.000000" viewBox="0 0 965 244" fill="none" xmlns="http://www.w3.org/2000/svg" xmlns:xlink="http://www.w3.org/1999/xlink">
	<desc>
			Created with Pixso.
	</desc>
	<defs>
		<clipPath id="clip95_504">
			<rect id="Icon" width="34.000000" height="34.000000" transform="translate(89.500000 63.000000)" fill="white" fill-opacity="0"/>
		</clipPath>
	</defs>
	<rect id="Sub Container" rx="10.500000" width="853.000000" height="99.000000" transform="translate(56.000000 30.500000)" fill="#FCFCFD" fill-opacity="1.000000"/>
	<rect id="Icon Container" rx="6.000000" width="62.000000" height="62.000000" transform="translate(75.500000 49.000000)" fill="#FFF4E6" fill-opacity="1.000000"/>
	<g clip-path="url(#clip95_504)">
		<path id="Vector 449 (Stroke)" d="M110.2 65.25C110.63 65.49 110.84 65.99 110.71 66.46L107.89 76.81L118.18 76.81C118.61 76.81 118.99 77.06 119.16 77.45C119.33 77.83 119.25 78.29 118.96 78.6L104.08 94.53C103.75 94.89 103.22 94.97 102.79 94.74C102.36 94.5 102.15 94 102.28 93.53L105.1 83.18L94.81 83.18C94.38 83.18 94 82.93 93.83 82.54C93.66 82.16 93.74 81.7 94.03 81.4L108.91 65.46C109.24 65.1 109.77 65.02 110.2 65.25Z" fill="#262626" fill-opacity="1.000000" fill-rule="evenodd"/>
	</g>
	<path id="Heading" d="M584.09 67.16C584.83 67.89 585.75 68.26 586.87 68.26C587.99 68.26 588.92 67.89 589.66 67.16C590.39 66.42 590.76 65.54 590.76 64.51C590.76 63.49 590.39 62.61 589.66 61.88C588.92 61.14 587.99 60.77 586.87 60.77C585.75 60.77 584.83 61.14 584.09 61.88C583.39 62.61 583.03 63.49 583.03 64.51C583.03 65.54 583.39 66.42 584.09 67.16ZM824.89 67.16C825.62 67.89 826.55 68.26 827.67 68.26C828.79 68.26 829.72 67.89 830.45 67.16C831.19 66.42 831.56 65.54 831.56 64.51C831.56 63.49 831.19 62.61 830.45 61.88C829.72 61.14 828.79 60.77 827.67 60.77C826.55 60.77 825.62 61.14 824.89 61.88C824.18 62.61 823.83 63.49 823.83 64.51C823.83 65.54 824.18 66.42 824.89 67.16ZM869.45 61.16L869.4 97.64L875.79 97.64L875.79 61.16L869.45 61.16ZM455.32 96.58C457.5 97.6 460.03 98.12 462.91 98.12C465.31 98.12 467.37 97.81 469.1 97.2Q471.69 96.29 473.42 94.85C474.57 93.86 475.48 92.84 476.15 91.78C476.86 90.69 477.39 89.67 477.74 88.71C478.09 87.72 478.31 86.92 478.41 86.31L478.6 85.4L472.12 85.4L471.93 86.12C471.83 86.56 471.61 87.12 471.26 87.8C470.94 88.47 470.44 89.14 469.77 89.81Q468.76 90.82 467.08 91.54C465.99 91.99 464.63 92.21 463 92.21C461.21 92.21 459.64 91.86 458.3 91.16C456.95 90.45 455.83 89.51 454.94 88.32C454.04 87.14 453.37 85.83 452.92 84.39C452.51 82.92 452.3 81.41 452.3 79.87C452.3 78.34 452.51 76.83 452.92 75.36Q453.45 73.63 454.4 72.16Q454.65 71.76 454.94 71.38C455.83 70.19 456.95 69.27 458.3 68.6C459.64 67.89 461.21 67.54 463 67.54C464.63 67.54 465.99 67.76 467.08 68.21C468.2 68.66 469.1 69.22 469.77 69.89C470.44 70.56 470.94 71.25 471.26 71.96C471.61 72.63 471.83 73.19 471.93 73.64L472.12 74.31L478.6 74.31L478.41 73.4Q478.27 72.48 477.74 71.04C477.39 70.08 476.86 69.06 476.15 67.97C475.48 66.88 474.57 65.86 473.42 64.9C472.27 63.94 470.83 63.16 469.1 62.55Q466.51 61.64 462.91 61.64C460.03 61.64 457.5 62.15 455.32 63.17C453.18 64.19 451.37 65.59 449.9 67.35C448.46 69.08 447.37 71.03 446.63 73.2C445.93 75.38 445.58 77.6 445.58 79.87C445.58 82.15 445.93 84.37 446.63 86.55C447.37 88.69 448.46 90.64 449.9 92.4C451.37 94.13 453.18 95.52 455.32 96.58ZM338.08 85.3L338.08 97.64L344.56 97.64L344.56 85.3L357.04 62.12L349.89 62.12L341.3 78.68L332.7 62.12L325.6 62.12L338.08 85.3ZM664.65 62.12L664.65 97.64L671.18 97.64L671.18 85.68L678.67 85.68C681.52 85.68 683.89 85.11 685.77 83.96C687.66 82.8 689.07 81.33 690 79.54C690.96 77.72 691.44 75.83 691.44 73.87C691.44 71.92 690.96 70.05 690 68.26C689.07 66.44 687.66 64.96 685.77 63.84C683.89 62.69 681.52 62.12 678.67 62.12L664.65 62.12ZM569.42 97.35C570.54 97.86 571.96 98.12 573.69 98.12C574.81 98.12 575.77 98.04 576.57 97.88L577.82 97.68L577.82 92.69L577.01 92.84C576.49 92.9 575.93 92.93 575.33 92.93C572.77 92.93 571.49 91.8 571.49 89.52L571.49 77.33L577.2 77.33L577.2 72.19L571.49 72.19L571.49 65.86L565.1 65.86L565.1 72.19L560.73 72.19L560.73 77.33L565.1 77.33L565.1 89.67C565.1 90.63 565.23 91.6 565.49 92.6C565.74 93.59 566.17 94.5 566.78 95.33C567.42 96.16 568.3 96.84 569.42 97.35ZM733.06 97.35C734.18 97.86 735.61 98.12 737.33 98.12C738.45 98.12 739.41 98.04 740.21 97.88L741.46 97.68L741.46 92.69L740.65 92.84C740.13 92.9 739.57 92.93 738.97 92.93C736.41 92.93 735.13 91.8 735.13 89.52L735.13 77.33L740.84 77.33L740.84 72.19L735.13 72.19L735.13 65.86L728.74 65.86L728.74 72.19L724.37 72.19L724.37 77.33L728.74 77.33L728.74 89.67C728.74 90.63 728.87 91.6 729.13 92.6C729.38 93.59 729.81 94.5 730.42 95.33Q731.38 96.58 733.06 97.35ZM810.22 97.35C811.34 97.86 812.76 98.12 814.49 98.12C815.61 98.12 816.57 98.04 817.37 97.88L818.62 97.68L818.62 92.69L817.8 92.84C817.29 92.9 816.73 92.93 816.12 92.93C813.56 92.93 812.28 91.8 812.28 89.52L812.28 77.33L817.99 77.33L817.99 72.19L812.28 72.19L812.28 65.86L805.9 65.86L805.9 72.19L801.53 72.19L801.53 77.33L805.9 77.33L805.9 89.67C805.9 90.63 806.03 91.6 806.28 92.6C806.54 93.59 806.97 94.5 807.58 95.33Q808.54 96.58 810.22 97.35ZM671.18 67.78L678.62 67.78C680.03 67.78 681.2 68.08 682.13 68.69C683.05 69.3 683.74 70.07 684.19 71C684.67 71.92 684.91 72.9 684.91 73.92Q684.91 74.13 684.9 74.33Q684.81 75.61 684.19 76.85C683.74 77.78 683.05 78.55 682.13 79.16C681.2 79.73 680.03 80.02 678.62 80.02L671.18 80.02L671.18 67.78ZM361.73 96.24C363.68 97.49 366.05 98.12 368.83 98.12C371.65 98.12 374.02 97.49 375.94 96.24Q377.85 95.02 379.14 93.33Q379.83 92.43 380.35 91.4C381.38 89.38 381.89 87.22 381.89 84.92C381.89 82.61 381.38 80.47 380.35 78.48Q379.76 77.29 378.95 76.28Q377.71 74.72 375.94 73.59C374.02 72.34 371.65 71.72 368.83 71.72Q364.65 71.72 361.73 73.59C359.77 74.83 358.29 76.47 357.26 78.48C356.27 80.47 355.77 82.61 355.77 84.92Q355.77 87.06 356.35 89.05Q356.7 90.25 357.26 91.4C358.29 93.38 359.77 95 361.73 96.24ZM415.36 72.19L415.36 97.64L421.75 97.64L421.75 85.88C421.75 83.09 422.32 81.08 423.47 79.83C424.63 78.58 426.32 77.96 428.56 77.96C429.23 77.96 429.79 77.99 430.24 78.05L430.96 78.15L430.96 71.96L430.34 71.86C429.92 71.76 429.39 71.72 428.75 71.72C426.71 71.72 425.17 72.13 424.15 72.96C423.12 73.8 422.39 74.71 421.94 75.7L421.7 75.7L421.7 72.19L415.36 72.19ZM483.75 72.19L483.75 97.64L490.14 97.64L490.14 85.88C490.14 83.09 490.71 81.08 491.86 79.83C493.02 78.58 494.71 77.96 496.95 77.96C497.62 77.96 498.18 77.99 498.63 78.05L499.35 78.15L499.35 71.96L498.73 71.86C498.31 71.76 497.78 71.72 497.14 71.72C495.1 71.72 493.56 72.13 492.54 72.96C491.51 73.8 490.78 74.71 490.33 75.7L490.09 75.7L490.09 72.19L483.75 72.19ZM508.99 97.01Q511.39 98.12 514.65 98.12C516.63 98.12 518.3 97.83 519.64 97.25C520.99 96.68 522.07 95.97 522.91 95.14C523.74 94.28 524.36 93.43 524.78 92.6C525.23 91.73 525.53 91.03 525.69 90.48L525.93 89.62L520.03 89.62L519.79 90.15C519.63 90.47 519.35 90.87 518.97 91.35C518.59 91.8 518.04 92.2 517.34 92.55C516.63 92.9 515.74 93.08 514.65 93.08C512.76 93.08 511.27 92.45 510.19 91.2C509.1 89.92 508.51 88.42 508.41 86.69L526.12 86.69L526.12 85.06Q526.12 80.69 524.63 77.76C523.64 75.78 522.27 74.28 520.51 73.25C518.75 72.23 516.71 71.72 514.41 71.72C512.27 71.72 510.41 72.1 508.84 72.87C507.27 73.6 505.98 74.61 504.95 75.89C503.96 77.17 503.21 78.6 502.7 80.16C502.22 81.7 501.98 83.28 501.98 84.92C501.98 86.55 502.23 88.15 502.75 89.72Q503.17 91.01 503.82 92.17Q504.36 93.12 505.05 93.99C506.11 95.24 507.42 96.24 508.99 97.01ZM546.4 72.53C545.34 71.99 544 71.72 542.37 71.72C540.48 71.72 538.83 72.1 537.42 72.87C536.02 73.6 534.83 74.61 533.87 75.89C532.94 77.14 532.24 78.55 531.76 80.12C531.31 81.68 531.09 83.28 531.09 84.92Q531.09 86.16 531.26 87.39Q531.43 88.56 531.76 89.72C532.24 91.28 532.94 92.71 533.87 93.99C534.83 95.24 536.02 96.24 537.42 97.01C538.83 97.75 540.48 98.12 542.37 98.12C544 98.12 545.34 97.86 546.4 97.35Q547.98 96.58 548.9 95.62C549.5 94.98 549.92 94.47 550.14 94.08L550.43 94.08L550.43 97.64L556.82 97.64L556.82 72.19L550.43 72.19L550.43 75.75L550.14 75.75C549.92 75.36 549.5 74.87 548.9 74.26C548.29 73.62 547.46 73.04 546.4 72.53ZM630.39 97.01Q632.79 98.12 636.06 98.12C638.04 98.12 639.7 97.83 641.05 97.25C642.39 96.68 643.48 95.97 644.31 95.14C645.14 94.28 645.77 93.43 646.18 92.6C646.63 91.73 646.94 91.03 647.1 90.48L647.34 89.62L641.43 89.62L641.19 90.15C641.03 90.47 640.76 90.87 640.38 91.35C639.99 91.8 639.45 92.2 638.74 92.55C638.04 92.9 637.14 93.08 636.06 93.08C634.17 93.08 632.68 92.45 631.59 91.2C630.5 89.92 629.91 88.42 629.82 86.69L647.53 86.69L647.53 85.06Q647.53 80.69 646.04 77.76C645.05 75.78 643.67 74.28 641.91 73.25C640.15 72.23 638.12 71.72 635.82 71.72C633.67 71.72 631.82 72.1 630.25 72.87C628.68 73.6 627.38 74.61 626.36 75.89C625.37 77.17 624.62 78.6 624.1 80.16C623.62 81.7 623.38 83.28 623.38 84.92C623.38 86.55 623.64 88.15 624.15 89.72Q624.57 91.01 625.23 92.17Q625.76 93.12 626.46 93.99C627.51 95.24 628.82 96.24 630.39 97.01ZM700.59 96.24C702.54 97.49 704.91 98.12 707.69 98.12C710.51 98.12 712.87 97.49 714.79 96.24C716.75 95 718.22 93.38 719.21 91.4C720.23 89.38 720.75 87.22 720.75 84.92C720.75 82.61 720.23 80.47 719.21 78.48C718.22 76.47 716.75 74.83 714.79 73.59C712.87 72.34 710.51 71.72 707.69 71.72C704.91 71.72 702.54 72.34 700.59 73.59C698.63 74.83 697.15 76.47 696.12 78.48C695.13 80.47 694.63 82.61 694.63 84.92C694.63 87.22 695.13 89.38 696.12 91.4C697.15 93.38 698.63 95 700.59 96.24ZM752.74 97.01Q755.14 98.12 758.4 98.12C760.38 98.12 762.05 97.83 763.39 97.25C764.74 96.68 765.82 95.97 766.66 95.14C767.49 94.28 768.11 93.43 768.53 92.6C768.98 91.73 769.28 91.03 769.44 90.48L769.68 89.62L763.78 89.62L763.54 90.15C763.38 90.47 763.1 90.87 762.72 91.35C762.34 91.8 761.79 92.2 761.09 92.55C760.38 92.9 759.49 93.08 758.4 93.08C756.51 93.08 755.02 92.45 753.94 91.2C752.85 89.92 752.26 88.42 752.16 86.69L769.87 86.69L769.87 85.06C769.87 82.15 769.38 79.72 768.38 77.76C767.39 75.78 766.02 74.28 764.26 73.25C762.5 72.23 760.46 71.72 758.16 71.72C756.02 71.72 754.16 72.1 752.59 72.87C751.02 73.6 749.73 74.61 748.7 75.89C747.71 77.17 746.96 78.6 746.45 80.16C745.97 81.7 745.73 83.28 745.73 84.92C745.73 86.55 745.98 88.15 746.5 89.72Q746.92 91.01 747.57 92.17Q748.11 93.12 748.8 93.99C749.86 95.24 751.17 96.24 752.74 97.01ZM775.27 72.19L775.27 97.64L781.65 97.64L781.65 83.09C781.65 82.07 781.81 81.09 782.13 80.16C782.48 79.24 783.03 78.48 783.76 77.91C784.5 77.3 785.46 77 786.64 77C788.18 77 789.33 77.49 790.1 78.48C790.87 79.48 791.25 80.66 791.25 82.04L791.25 97.64L797.64 97.64L797.64 81.17Q797.64 79.15 797.01 77.35Q796.86 76.92 796.68 76.51C796.07 75.08 795.12 73.92 793.84 73.06C792.6 72.16 791 71.72 789.04 71.72Q786.84 71.72 785.4 72.48C784.44 72.96 783.68 73.54 783.14 74.21C782.6 74.85 782.2 75.4 781.94 75.84L781.65 75.84L781.65 72.19L775.27 72.19ZM852.45 72.53C851.39 71.99 850.05 71.72 848.41 71.72C846.53 71.72 844.88 72.1 843.47 72.87C842.06 73.6 840.88 74.61 839.92 75.89C838.99 77.14 838.29 78.55 837.81 80.12C837.36 81.68 837.13 83.28 837.13 84.92Q837.13 86.16 837.31 87.39Q837.48 88.56 837.81 89.72C838.29 91.28 838.99 92.71 839.92 93.99C840.88 95.24 842.06 96.24 843.47 97.01Q845.58 98.12 848.41 98.12C850.05 98.12 851.39 97.86 852.45 97.35C853.5 96.84 854.33 96.26 854.94 95.62C855.55 94.98 855.97 94.47 856.19 94.08L856.48 94.08L856.48 97.64L862.86 97.64L862.86 72.19L856.48 72.19L856.48 75.75L856.19 75.75C855.97 75.36 855.55 74.87 854.94 74.26C854.33 73.62 853.5 73.04 852.45 72.53ZM389.49 95.67C390.86 97.3 392.88 98.12 395.54 98.12C396.94 98.12 398.11 97.89 399.04 97.44C400 97 400.77 96.45 401.34 95.81C401.95 95.17 402.42 94.56 402.74 93.99L403.02 93.99L403.02 97.64L409.41 97.64L409.41 72.19L403.02 72.19L403.02 86.6C403.02 87.62 402.85 88.61 402.5 89.57C402.18 90.53 401.65 91.32 400.91 91.92C400.18 92.53 399.22 92.84 398.03 92.84C396.69 92.84 395.65 92.44 394.91 91.64C394.18 90.8 393.81 89.7 393.81 88.32L393.81 72.19L387.47 72.19L387.47 89.38C387.47 91.94 388.14 94.04 389.49 95.67ZM583.71 72.19L583.71 97.64L590.09 97.64L590.09 72.19L583.71 72.19ZM595.04 72.19L604.5 97.64L611.17 97.64L620.67 72.19L614.19 72.19L607.9 90.34L601.52 72.19L595.04 72.19ZM824.5 72.19L824.5 97.64L830.89 97.64L830.89 72.19L824.5 72.19ZM519.98 82.52L508.41 82.52C508.57 80.69 509.19 79.27 510.28 78.24C511.37 77.19 512.73 76.66 514.36 76.66C515.83 76.66 517.11 77.14 518.2 78.1C519.29 79.06 519.88 80.53 519.98 82.52ZM641.38 82.52L629.82 82.52C629.98 80.69 630.6 79.27 631.69 78.24C632.78 77.19 634.14 76.66 635.77 76.66C637.24 76.66 638.52 77.14 639.61 78.1C640.7 79.06 641.29 80.53 641.38 82.52ZM763.73 82.52L752.16 82.52C752.32 80.69 752.94 79.27 754.03 78.24C755.12 77.19 756.48 76.66 758.11 76.66C759.58 76.66 760.86 77.14 761.95 78.1C763.04 79.06 763.63 80.53 763.73 82.52ZM541.13 77.65Q542.39 76.95 544.05 76.95C545.49 76.95 546.69 77.35 547.65 78.15C548.61 78.92 549.33 79.91 549.81 81.12C550.29 82.34 550.53 83.6 550.53 84.92C550.53 86.23 550.29 87.49 549.81 88.71C549.33 89.92 548.61 90.93 547.65 91.73C546.69 92.5 545.49 92.88 544.05 92.88C542.61 92.88 541.39 92.5 540.4 91.73C539.44 90.93 538.72 89.92 538.24 88.71C537.76 87.49 537.52 86.23 537.52 84.92C537.52 83.6 537.76 82.34 538.24 81.12C538.72 79.91 539.44 78.92 540.4 78.15Q540.75 77.87 541.13 77.65ZM847.17 77.65Q848.44 76.95 850.09 76.95C851.53 76.95 852.73 77.35 853.69 78.15C854.65 78.92 855.37 79.91 855.85 81.12Q856.2 81.99 856.38 82.89Q856.57 83.88 856.57 84.92Q856.57 85.95 856.38 86.94Q856.2 87.84 855.85 88.71C855.37 89.92 854.65 90.93 853.69 91.73C852.73 92.5 851.53 92.88 850.09 92.88C848.65 92.88 847.44 92.5 846.45 91.73C845.49 90.93 844.77 89.92 844.29 88.71C843.81 87.49 843.57 86.23 843.57 84.92C843.57 83.6 843.81 82.34 844.29 81.12C844.77 79.91 845.49 78.92 846.45 78.15Q846.79 77.87 847.17 77.65ZM372.43 91.68C371.47 92.42 370.27 92.79 368.83 92.79Q367.1 92.79 365.79 92.05Q365.5 91.88 365.23 91.68C364.24 90.95 363.49 89.99 362.97 88.8C362.46 87.59 362.21 86.29 362.21 84.92C362.21 83.51 362.46 82.21 362.97 81.03Q363.48 79.85 364.3 78.97Q364.73 78.52 365.23 78.15C366.22 77.41 367.42 77.04 368.83 77.04C370.27 77.04 371.47 77.41 372.43 78.15Q372.94 78.52 373.36 78.97Q374.18 79.85 374.69 81.03C375.2 82.21 375.46 83.51 375.46 84.92C375.46 86.29 375.2 87.59 374.69 88.8C374.18 89.99 373.42 90.95 372.43 91.68ZM711.29 91.68C710.33 92.42 709.13 92.79 707.69 92.79Q705.96 92.79 704.65 92.05Q704.36 91.88 704.09 91.68C703.1 90.95 702.35 89.99 701.83 88.8C701.32 87.59 701.07 86.29 701.07 84.92C701.07 83.51 701.32 82.21 701.83 81.03C702.35 79.84 703.1 78.88 704.09 78.15C705.08 77.41 706.28 77.04 707.69 77.04C709.13 77.04 710.33 77.41 711.29 78.15Q711.8 78.52 712.22 78.97Q713.04 79.85 713.55 81.03C714.06 82.21 714.31 83.51 714.31 84.92Q714.31 86.49 713.86 87.93Q713.73 88.37 713.55 88.8C713.03 89.99 712.28 90.95 711.29 91.68Z" fill="#1A1A1A" fill-opacity="1.000000" fill-rule="evenodd"/>
	<path id="Heading" d="M214.75 61.16L214.7 97.64L221.09 97.64L221.09 61.16L214.75 61.16ZM288.86 61.16L288.86 97.64L295.24 97.64L295.24 85.92L304.46 97.64L312.09 97.64L301.19 83.81L311.75 72.19L304.22 72.19L295.24 82.28L295.24 61.16L288.86 61.16ZM158.14 96.63C160.29 97.62 162.67 98.12 165.3 98.12C167.99 98.12 170.39 97.62 172.5 96.63C174.64 95.6 176.34 94.07 177.59 92.02C178.83 89.97 179.46 87.4 179.46 84.29L179.46 62.12L172.98 62.12L172.98 84.29C172.98 86.47 172.35 88.29 171.11 89.76Q170.9 90.01 170.67 90.22Q168.8 91.97 165.3 91.97Q161.89 91.97 160.03 90.27Q159.77 90.04 159.54 89.76C158.32 88.29 157.71 86.47 157.71 84.29L157.71 62.12L151.19 62.12L151.19 84.29Q151.19 88.95 153.06 92.02Q154.05 93.64 155.41 94.84Q156.63 95.9 158.14 96.63ZM185.91 72.19L185.91 97.64L192.29 97.64L192.29 83.09C192.29 82.07 192.45 81.09 192.77 80.16C193.13 79.24 193.67 78.48 194.41 77.91C195.14 77.3 196.1 77 197.29 77C198.82 77 199.97 77.49 200.74 78.48C201.51 79.48 201.89 80.66 201.89 82.04L201.89 97.64L208.28 97.64L208.28 81.17Q208.28 79.15 207.65 77.34Q207.5 76.92 207.32 76.51Q206.83 75.35 206.05 74.44Q205.37 73.66 204.49 73.06C203.24 72.16 201.64 71.72 199.68 71.72C198.21 71.72 197 71.97 196.04 72.48C195.08 72.96 194.32 73.54 193.78 74.21C193.24 74.85 192.84 75.4 192.58 75.84L192.29 75.84L192.29 72.19L185.91 72.19ZM232.91 96.24C234.87 97.49 237.23 98.12 240.02 98.12C242.83 98.12 245.2 97.49 247.12 96.24Q249.03 95.02 250.33 93.33Q251.02 92.43 251.54 91.4Q252.17 90.14 252.55 88.82Q253.07 86.94 253.07 84.92C253.07 82.61 252.56 80.47 251.54 78.48Q250.95 77.29 250.14 76.28Q248.9 74.72 247.12 73.59C245.2 72.34 242.83 71.72 240.02 71.72C237.23 71.72 234.87 72.34 232.91 73.59C230.96 74.83 229.47 76.47 228.45 78.48C227.46 80.47 226.96 82.61 226.96 84.92C226.96 87.22 227.46 89.38 228.45 91.4Q229.01 92.48 229.75 93.41Q231.05 95.05 232.91 96.24ZM265.34 97.01C266.97 97.75 268.87 98.12 271.05 98.12C273.22 98.12 275.03 97.8 276.47 97.16C277.91 96.52 279.05 95.72 279.88 94.76C280.74 93.8 281.38 92.85 281.8 91.92C282.22 90.96 282.49 90.16 282.62 89.52L282.81 88.56L276.81 88.56L276.62 89.24C276.49 89.65 276.23 90.15 275.85 90.72C275.46 91.3 274.89 91.81 274.12 92.26C273.38 92.71 272.39 92.93 271.14 92.93C269.67 92.93 268.42 92.56 267.4 91.83C266.41 91.06 265.66 90.07 265.14 88.85C264.63 87.64 264.38 86.32 264.38 84.92C264.38 83.51 264.63 82.2 265.14 80.98C265.66 79.76 266.41 78.79 267.4 78.05C268.42 77.28 269.67 76.9 271.14 76.9C272.39 76.9 273.38 77.12 274.12 77.57C274.89 78.02 275.46 78.53 275.85 79.11C276.23 79.68 276.49 80.19 276.62 80.64L276.81 81.27L282.81 81.27L282.62 80.31C282.49 79.67 282.22 78.88 281.8 77.96C281.38 77 280.74 76.04 279.88 75.08C279.05 74.12 277.91 73.32 276.47 72.68C275.03 72.04 273.22 71.72 271.05 71.72C268.84 71.72 266.92 72.1 265.29 72.87C263.66 73.6 262.3 74.61 261.21 75.89C260.15 77.14 259.35 78.55 258.81 80.12C258.3 81.68 258.04 83.28 258.04 84.92C258.04 86.55 258.3 88.15 258.81 89.72C259.35 91.28 260.17 92.71 261.26 93.99C262.34 95.24 263.7 96.24 265.34 97.01ZM243.62 91.68C242.66 92.42 241.46 92.79 240.02 92.79C238.61 92.79 237.41 92.42 236.42 91.68C235.43 90.95 234.67 89.99 234.16 88.8C233.65 87.59 233.39 86.29 233.39 84.92C233.39 83.51 233.65 82.21 234.16 81.03C234.67 79.84 235.43 78.88 236.42 78.15C237.41 77.41 238.61 77.04 240.02 77.04C241.46 77.04 242.66 77.41 243.62 78.15Q244.12 78.52 244.55 78.97Q245.37 79.85 245.87 81.03C246.39 82.21 246.64 83.51 246.64 84.92C246.64 86.29 246.39 87.59 245.87 88.8C245.36 89.99 244.61 90.95 243.62 91.68Z" fill="#FF9500" fill-opacity="1.000000" fill-rule="evenodd"/>
	<rect id="Abstract Line" width="39.000000" height="43.000000" transform="translate(31.500000 0.000000)" fill="#FFFFFF" fill-opacity="0"/>
	<path id="Vector" d="M44.54 40.12C40.82 39.07 36.92 38.54 33.14 38.05C32.32 37.95 31.57 38.52 31.51 39.32C31.39 40.12 31.98 40.86 32.73 40.96C36.4 41.43 40.18 41.93 43.73 42.94C44.49 43.16 45.3 42.71 45.53 41.93C45.77 41.15 45.3 40.34 44.54 40.12Z" fill="#262626" fill-opacity="1.000000" fill-rule="evenodd"/>
	<path id="Vector" d="M55.83 25.21C49.84 19.06 43.09 13.69 37.21 7.37C36.69 6.78 35.76 6.75 35.18 7.3C34.59 7.86 34.54 8.78 35.12 9.37C40.99 15.71 47.74 21.09 53.74 27.26C54.32 27.84 55.25 27.85 55.83 27.28C56.36 26.72 56.41 25.79 55.83 25.21Z" fill="#262626" fill-opacity="1.000000" fill-rule="evenodd"/>
	<path id="Vector" d="M67.06 1.54C67.24 5.06 67.41 8.58 67.59 12.11C67.59 12.91 68.28 13.54 69.1 13.5C69.91 13.46 70.5 12.77 70.5 11.96C70.32 8.44 70.15 4.91 69.97 1.38C69.91 0.57 69.21 -0.05 68.4 0C67.64 0.04 67 0.73 67.06 1.54Z" fill="#262626" fill-opacity="1.000000" fill-rule="evenodd"/>
	<rect id="Sub Container" rx="10.500000" width="853.000000" height="99.000000" transform="translate(56.000000 30.500000)" stroke="#F1F1F3" stroke-opacity="1.000000" stroke-width="1.000000"/>
	<path id="Heading" d="M89.95 168.06C90.46 168.6 91.11 168.86 91.89 168.86C92.68 168.86 93.32 168.61 93.83 168.1C94.36 167.57 94.63 166.94 94.63 166.2C94.63 165.47 94.36 164.85 93.83 164.34C93.32 163.81 92.68 163.54 91.89 163.54C91.11 163.54 90.46 163.81 89.95 164.34C89.45 164.85 89.19 165.47 89.19 166.2C89.19 166.91 89.45 167.53 89.95 168.06ZM211.6 168.06C212.11 168.6 212.75 168.86 213.54 168.86C214.32 168.86 214.97 168.61 215.48 168.1C216.01 167.57 216.27 166.94 216.27 166.2C216.27 165.47 216.01 164.85 215.48 164.34C214.97 163.81 214.32 163.54 213.54 163.54Q212.82 163.54 212.26 163.84Q211.9 164.03 211.6 164.34C211.09 164.85 210.84 165.47 210.84 166.2C210.84 166.91 211.09 167.53 211.6 168.06ZM346.49 168.06C347 168.6 347.64 168.86 348.43 168.86C349.22 168.86 349.86 168.61 350.37 168.1C350.9 167.57 351.17 166.94 351.17 166.2Q351.17 165.65 350.97 165.19Q350.77 164.72 350.37 164.34C349.86 163.81 349.22 163.54 348.43 163.54Q347.72 163.54 347.15 163.84Q346.79 164.03 346.49 164.34C345.99 164.85 345.73 165.47 345.73 166.2C345.73 166.91 345.99 167.53 346.49 168.06ZM116.4 163.58L116.4 192.46L120.74 192.46L120.74 181.02C120.74 180.09 120.89 179.21 121.19 178.4Q121.56 177.39 122.25 176.7Q122.42 176.53 122.6 176.39C123.26 175.85 124.11 175.59 125.14 175.59Q126.66 175.59 127.59 176.32Q127.88 176.55 128.11 176.84C128.79 177.68 129.13 178.7 129.13 179.92L129.13 192.46L133.47 192.46L133.47 179.46C133.47 178.1 133.2 176.84 132.67 175.7C132.16 174.56 131.4 173.65 130.39 172.97C129.38 172.28 128.12 171.94 126.63 171.94Q124.84 171.94 123.66 172.55C122.9 172.95 122.31 173.42 121.88 173.95C121.45 174.46 121.14 174.89 120.96 175.25L120.74 175.25L120.74 163.58L116.4 163.58ZM201.16 163.58L201.13 192.46L205.46 192.46L205.46 163.58L201.16 163.58ZM463.03 191.97C464.17 192.55 465.5 192.84 467.02 192.84C468.29 192.84 469.34 192.64 470.18 192.23C471.04 191.83 471.72 191.36 472.23 190.83C472.74 190.29 473.1 189.84 473.33 189.46L473.56 189.46L473.56 192.46L477.89 192.46L477.89 163.58L473.56 163.58L473.56 175.32L473.33 175.32C473.1 174.94 472.74 174.49 472.23 173.95C471.72 173.42 471.04 172.95 470.18 172.55C469.34 172.14 468.29 171.94 467.02 171.94C465.5 171.94 464.17 172.24 463.03 172.85C461.92 173.44 460.98 174.23 460.22 175.25C459.46 176.23 458.89 177.35 458.51 178.59Q458.25 179.5 458.12 180.43Q457.98 181.4 457.98 182.39Q457.98 183.38 458.12 184.35Q458.25 185.28 458.51 186.19C458.89 187.43 459.46 188.56 460.22 189.57C460.98 190.56 461.92 191.36 463.03 191.97ZM586.8 163.58L586.77 192.46L591.1 192.46L591.1 163.58L586.8 163.58ZM154.45 191.62C156.18 192.44 158.17 192.84 160.42 192.84C162.7 192.84 164.7 192.44 166.42 191.62C168.15 190.79 169.59 189.69 170.76 188.32C171.92 186.93 172.8 185.37 173.38 183.64C173.96 181.92 174.25 180.16 174.25 178.36C174.25 176.56 173.96 174.82 173.38 173.12C172.8 171.4 171.92 169.85 170.76 168.48Q170.44 168.11 170.09 167.76Q168.54 166.21 166.42 165.21C164.7 164.38 162.7 163.96 160.42 163.96C158.17 163.96 156.18 164.38 154.45 165.21Q152.34 166.21 150.78 167.76Q150.44 168.11 150.12 168.48C148.96 169.85 148.08 171.4 147.5 173.12Q147.08 174.34 146.86 175.59Q146.63 176.96 146.63 178.36Q146.63 179.43 146.76 180.48Q146.97 182.08 147.5 183.64C148.08 185.37 148.96 186.93 150.12 188.32C151.29 189.69 152.73 190.79 154.45 191.62ZM756.25 191.62C757.95 192.44 759.92 192.84 762.18 192.84C764.03 192.84 765.61 192.6 766.93 192.12C768.27 191.64 769.39 191.03 770.27 190.29C771.19 189.53 771.91 188.74 772.44 187.9C773 187.04 773.4 186.24 773.66 185.51Q774.07 184.37 774.23 183.64L774.38 182.92L769.93 182.92L769.78 183.53C769.7 183.91 769.51 184.39 769.21 184.97C768.93 185.56 768.5 186.14 767.92 186.72C767.36 187.31 766.61 187.8 765.68 188.2C764.76 188.58 763.61 188.77 762.22 188.77C760.72 188.77 759.41 188.48 758.27 187.9C757.15 187.32 756.21 186.53 755.45 185.54C754.69 184.53 754.12 183.42 753.74 182.2C753.39 180.96 753.21 179.69 753.21 178.4C753.21 177.11 753.39 175.84 753.74 174.6C754.12 173.36 754.69 172.24 755.45 171.26C756.21 170.27 757.15 169.48 758.27 168.9C759.41 168.32 760.72 168.03 762.22 168.03C763.61 168.03 764.76 168.23 765.68 168.63C766.61 169.01 767.36 169.5 767.92 170.08C768.5 170.64 768.93 171.21 769.21 171.79C769.51 172.37 769.7 172.87 769.78 173.27L769.93 173.84L774.38 173.84L774.23 173.16C774.12 172.68 773.93 172.05 773.66 171.29Q773.28 170.15 772.44 168.9C771.91 168.06 771.19 167.28 770.27 166.54C769.39 165.78 768.27 165.16 766.93 164.68C765.61 164.2 764.03 163.96 762.18 163.96C759.92 163.96 757.95 164.37 756.25 165.18C754.58 165.99 753.17 167.09 752.03 168.48C750.92 169.85 750.07 171.4 749.49 173.12C748.93 174.84 748.65 176.6 748.65 178.4C748.65 180.2 748.93 181.96 749.49 183.68C750.07 185.38 750.92 186.93 752.03 188.32C753.17 189.69 754.58 190.79 756.25 191.62ZM275.46 164.34L275.46 192.46L285.07 192.46C287.32 192.46 289.3 192.07 291 191.28C292.7 190.47 294.1 189.4 295.22 188.05Q296.06 187.05 296.7 185.93Q297.34 184.8 297.76 183.53C298.34 181.86 298.64 180.15 298.64 178.4C298.64 176.65 298.34 174.94 297.76 173.27Q297.34 172.01 296.7 170.87Q296.06 169.75 295.22 168.75Q294.96 168.44 294.69 168.16Q293.16 166.56 291 165.56C289.3 164.75 287.32 164.34 285.07 164.34L275.46 164.34ZM492.43 164.34L492.43 192.46L502.05 192.46C504.3 192.46 506.28 192.07 507.98 191.28C509.67 190.47 511.08 189.4 512.19 188.05C513.33 186.71 514.18 185.2 514.74 183.53Q515.28 181.99 515.48 180.4Q515.61 179.41 515.61 178.4Q515.61 177.39 515.48 176.4Q515.28 174.81 514.74 173.27C514.18 171.6 513.33 170.09 512.19 168.75Q511.94 168.44 511.67 168.16Q510.14 166.56 507.98 165.56C506.28 164.75 504.3 164.34 502.05 164.34L492.43 164.34ZM104.64 191.97C105.6 192.55 106.88 192.84 108.48 192.84Q109.73 192.84 110.64 192.69L111.59 192.54L111.59 189L110.91 189.12C110.45 189.19 109.96 189.23 109.43 189.23C107.32 189.23 106.27 188.28 106.27 186.38L106.27 175.82L110.98 175.82L110.98 172.32L106.27 172.32L106.27 167.3L101.94 167.3L101.94 172.32L98.41 172.32L98.41 175.82L101.94 175.82L101.94 186.46C101.94 187.6 102.14 188.66 102.55 189.65C102.98 190.61 103.68 191.38 104.64 191.97ZM729.11 191.97C730.08 192.55 731.36 192.84 732.95 192.84C733.79 192.84 734.51 192.79 735.12 192.69L736.07 192.54L736.07 189L735.38 189.12C734.93 189.19 734.43 189.23 733.9 189.23Q732.17 189.23 731.39 188.37Q730.75 187.66 730.75 186.38L730.75 175.82L735.46 175.82L735.46 172.32L730.75 172.32L730.75 167.3L726.42 167.3L726.42 172.32L722.88 172.32L722.88 175.82L726.42 175.82L726.42 186.46C726.42 187.6 726.62 188.66 727.02 189.65C727.45 190.61 728.15 191.38 729.11 191.97ZM165.51 187.29C164.14 188.28 162.45 188.77 160.42 188.77C158.42 188.77 156.73 188.28 155.37 187.29C154 186.28 152.96 184.99 152.25 183.42C151.54 181.82 151.19 180.14 151.19 178.36C151.19 177.05 151.39 175.78 151.79 174.56C152.2 173.32 152.78 172.21 153.54 171.22C154.33 170.23 155.29 169.46 156.43 168.9C157.6 168.32 158.92 168.03 160.42 168.03C161.94 168.03 163.27 168.32 164.41 168.9C165.58 169.46 166.54 170.23 167.3 171.22C168.08 172.21 168.68 173.32 169.08 174.56C169.49 175.78 169.69 177.05 169.69 178.36C169.69 180.14 169.34 181.82 168.63 183.42C167.92 184.99 166.88 186.28 165.51 187.29ZM279.9 168.22L284.88 168.22C286.45 168.22 287.82 168.51 288.98 169.09C290.15 169.67 291.11 170.45 291.87 171.41C292.63 172.37 293.2 173.46 293.58 174.68Q293.96 175.8 294.1 176.95Q294.19 177.67 294.19 178.4Q294.19 179.13 294.1 179.85Q293.96 181 293.58 182.12C293.2 183.32 292.63 184.4 291.87 185.39C291.11 186.36 290.15 187.13 288.98 187.71C287.82 188.27 286.45 188.55 284.88 188.55L279.9 188.55L279.9 168.22ZM496.88 168.22L501.86 168.22C503.43 168.22 504.8 168.51 505.96 169.09C507.13 169.67 508.09 170.45 508.85 171.41C509.61 172.37 510.18 173.46 510.56 174.68Q510.93 175.8 511.08 176.95Q511.17 177.67 511.17 178.4Q511.17 179.13 511.08 179.85Q510.93 181 510.56 182.12C510.18 183.32 509.61 184.4 508.85 185.39C508.09 186.36 507.13 187.13 505.96 187.71C504.8 188.27 503.43 188.55 501.86 188.55L496.88 188.55L496.88 168.22ZM178.67 172.32L178.67 192.46L183 192.46L183 181.02C183 180.09 183.15 179.21 183.45 178.4C183.76 177.56 184.23 176.89 184.86 176.39C185.52 175.85 186.37 175.59 187.41 175.59C188.72 175.59 189.71 176.01 190.37 176.84C191.05 177.68 191.4 178.7 191.4 179.92L191.4 192.46L195.73 192.46L195.73 179.46C195.73 178.1 195.46 176.84 194.93 175.7C194.42 174.56 193.66 173.65 192.65 172.97C191.64 172.28 190.38 171.94 188.89 171.94C187.7 171.94 186.71 172.14 185.92 172.55C185.16 172.95 184.57 173.42 184.14 173.95C183.71 174.46 183.4 174.89 183.23 175.25L183 175.25L183 172.32L178.67 172.32ZM221.3 172.32L221.3 192.46L225.64 192.46L225.64 181.02C225.64 180.09 225.79 179.21 226.09 178.4C226.4 177.56 226.86 176.89 227.5 176.39C228.16 175.85 229.01 175.59 230.04 175.59C231.36 175.59 232.35 176.01 233.01 176.84C233.69 177.68 234.03 178.7 234.03 179.92L234.03 192.46L238.37 192.46L238.37 179.46C238.37 178.1 238.1 176.84 237.57 175.7C237.06 174.56 236.3 173.65 235.29 172.97C234.27 172.28 233.02 171.94 231.53 171.94C230.34 171.94 229.35 172.14 228.56 172.55C227.8 172.95 227.21 173.42 226.78 173.95C226.35 174.46 226.04 174.89 225.86 175.25L225.64 175.25L225.64 172.32L221.3 172.32ZM248.36 191.97C249.61 192.55 251.07 192.84 252.77 192.84C254.27 192.84 255.53 192.63 256.57 192.19C257.61 191.74 258.45 191.18 259.08 190.52C259.71 189.86 260.19 189.21 260.52 188.55Q261.06 187.56 261.25 186.91L261.44 186.23L257.41 186.23L257.18 186.68C257.05 186.99 256.82 187.34 256.5 187.75C256.17 188.15 255.7 188.52 255.09 188.85C254.48 189.15 253.71 189.31 252.77 189.31C251.13 189.31 249.83 188.75 248.9 187.63C247.96 186.52 247.44 185.19 247.34 183.64L261.63 183.64L261.63 182.47Q261.63 179.01 260.45 176.69Q259.56 174.85 258.11 173.73Q257.7 173.41 257.26 173.16C255.91 172.35 254.36 171.94 252.58 171.94C250.94 171.94 249.5 172.24 248.29 172.85Q246.95 173.5 245.96 174.49Q245.6 174.84 245.29 175.25C244.5 176.26 243.92 177.39 243.54 178.63C243.16 179.87 242.97 181.12 242.97 182.39C242.97 183.68 243.16 184.95 243.54 186.19C243.94 187.43 244.54 188.56 245.32 189.57C246.13 190.56 247.15 191.36 248.36 191.97ZM308.11 191.97C309.35 192.55 310.82 192.84 312.52 192.84C314.01 192.84 315.28 192.63 316.32 192.19C317.36 191.74 318.19 191.18 318.83 190.52C319.46 189.86 319.94 189.21 320.27 188.55Q320.8 187.56 320.99 186.91L321.18 186.23L317.15 186.23L316.93 186.68C316.8 186.99 316.57 187.34 316.24 187.75C315.91 188.15 315.44 188.52 314.84 188.85C314.23 189.15 313.46 189.31 312.52 189.31C310.87 189.31 309.58 188.75 308.64 187.63C307.7 186.52 307.19 185.19 307.08 183.64L321.37 183.64L321.37 182.47Q321.37 179.01 320.19 176.69Q319.3 174.85 317.85 173.73Q317.45 173.41 317 173.16C315.66 172.35 314.1 171.94 312.33 171.94C310.68 171.94 309.25 172.24 308.03 172.85C306.82 173.44 305.82 174.23 305.03 175.25Q304.56 175.86 304.18 176.53Q303.62 177.52 303.28 178.63C302.9 179.87 302.71 181.12 302.71 182.39Q302.71 183.25 302.83 184.1Q302.97 185.16 303.28 186.19C303.69 187.43 304.28 188.56 305.07 189.57Q305.25 189.8 305.45 190.01Q306.56 191.19 308.11 191.97ZM329.86 192.19C330.9 192.63 332.22 192.84 333.82 192.84C335.44 192.84 336.82 192.56 337.96 192C339.1 191.42 339.96 190.66 340.54 189.72C341.15 188.76 341.45 187.7 341.45 186.53C341.45 184.78 340.87 183.45 339.71 182.54C338.54 181.61 337.06 180.93 335.26 180.53L332.56 179.92C331.75 179.74 331.09 179.49 330.59 179.16C330.1 178.81 329.86 178.32 329.86 177.72C329.86 177.13 330.12 176.59 330.62 176.08C331.13 175.58 331.95 175.32 333.09 175.32C333.93 175.32 334.59 175.46 335.07 175.74C335.58 175.99 335.96 176.3 336.21 176.65C336.46 176.98 336.63 177.27 336.7 177.53L336.82 177.91L340.88 177.91L340.73 177.34C340.66 176.93 340.48 176.44 340.2 175.85Q339.78 174.94 338.95 174.07C338.39 173.46 337.63 172.95 336.67 172.55C335.73 172.14 334.54 171.94 333.09 171.94C330.86 171.94 329.09 172.51 327.77 173.65C326.46 174.79 325.8 176.23 325.8 177.98C325.8 179.17 326.08 180.15 326.63 180.91C327.22 181.64 327.96 182.24 328.88 182.69C329.81 183.13 330.81 183.47 331.88 183.72L334.61 184.33C335.5 184.53 336.18 184.82 336.67 185.2C337.15 185.58 337.39 186.1 337.39 186.76C337.39 187.44 337.1 188.05 336.51 188.58C335.96 189.12 335.1 189.38 333.93 189.38C332.97 189.38 332.19 189.23 331.61 188.93C331.03 188.6 330.6 188.23 330.32 187.82C330.04 187.42 329.85 187.06 329.75 186.76L329.64 186.27L325.42 186.27L325.53 186.95C325.61 187.38 325.79 187.93 326.06 188.58C326.37 189.24 326.82 189.9 327.43 190.56C328.04 191.19 328.85 191.74 329.86 192.19ZM361.78 199.79Q363.49 200.48 366.11 200.48C368.22 200.48 369.99 200.09 371.43 199.3C372.88 198.52 373.97 197.43 374.7 196.03C375.44 194.64 375.8 193.04 375.8 191.24L375.8 172.32L371.47 172.32L371.47 175.28L371.28 175.28C371.03 174.83 370.64 174.35 370.1 173.84C369.57 173.31 368.88 172.87 368.01 172.51C367.15 172.13 366.11 171.94 364.9 171.94C363.38 171.94 362.05 172.23 360.91 172.81C359.79 173.4 358.86 174.18 358.1 175.17C357.36 176.13 356.8 177.22 356.42 178.44Q356.22 179.08 356.09 179.74Q355.85 180.91 355.85 182.12C355.85 183.39 356.04 184.63 356.42 185.85C356.8 187.06 357.36 188.17 358.1 189.15C358.86 190.12 359.79 190.89 360.91 191.47C362.05 192.06 363.38 192.35 364.9 192.35C366.11 192.35 367.15 192.16 368.01 191.78C368.88 191.4 369.56 190.95 370.07 190.45C370.6 189.91 371 189.43 371.28 189L371.47 189L371.47 191.28C371.47 192.27 371.3 193.18 370.94 194.02C370.61 194.88 370.04 195.56 369.23 196.07C368.45 196.6 367.39 196.87 366.08 196.87C364.96 196.87 364.06 196.7 363.38 196.37C362.69 196.07 362.18 195.7 361.82 195.27C361.49 194.87 361.28 194.5 361.17 194.17L361.02 193.71L356.73 193.71L356.88 194.4C356.98 194.85 357.2 195.41 357.53 196.07C357.86 196.75 358.36 197.43 359.05 198.08C359.73 198.77 360.64 199.34 361.78 199.79ZM380.84 172.32L380.84 192.46L385.17 192.46L385.17 181.02C385.17 180.09 385.32 179.21 385.63 178.4C385.93 177.56 386.4 176.89 387.03 176.39Q387.11 176.33 387.19 176.27Q388.14 175.59 389.58 175.59Q391.09 175.59 392.03 176.32Q392.31 176.55 392.54 176.84C393.23 177.68 393.57 178.7 393.57 179.92L393.57 192.46L397.9 192.46L397.9 179.46C397.9 178.1 397.63 176.84 397.1 175.7C396.59 174.56 395.83 173.65 394.82 172.97C393.81 172.28 392.55 171.94 391.06 171.94Q389.27 171.94 388.1 172.55C387.34 172.95 386.74 173.42 386.31 173.95C385.88 174.46 385.57 174.89 385.4 175.25L385.17 175.25L385.17 172.32L380.84 172.32ZM423.53 172.55C422.7 172.14 421.64 171.94 420.38 171.94C418.86 171.94 417.53 172.24 416.39 172.85C415.27 173.44 414.34 174.23 413.58 175.25C412.82 176.23 412.25 177.35 411.87 178.59Q411.6 179.5 411.47 180.43Q411.33 181.4 411.33 182.39Q411.33 183.38 411.47 184.35Q411.6 185.28 411.87 186.19C412.25 187.43 412.82 188.56 413.58 189.57C414.34 190.56 415.27 191.36 416.39 191.97C417.53 192.55 418.86 192.84 420.38 192.84C421.64 192.84 422.7 192.64 423.53 192.23C424.39 191.83 425.08 191.36 425.58 190.83C426.09 190.29 426.46 189.84 426.69 189.46L426.91 189.46L426.91 192.46L431.25 192.46L431.25 172.32L426.91 172.32L426.91 175.32L426.69 175.32C426.46 174.94 426.09 174.49 425.58 173.95C425.08 173.42 424.39 172.95 423.53 172.55ZM436.32 172.32L436.32 192.46L440.65 192.46L440.65 181.02C440.65 180.09 440.8 179.21 441.1 178.4C441.41 177.56 441.88 176.89 442.51 176.39Q442.59 176.33 442.66 176.27Q443.62 175.59 445.06 175.59Q446.57 175.59 447.5 176.32Q447.79 176.55 448.02 176.84C448.7 177.68 449.05 178.7 449.05 179.92L449.05 192.46L453.38 192.46L453.38 179.46C453.38 178.1 453.11 176.84 452.58 175.7C452.07 174.56 451.31 173.65 450.3 172.97C449.29 172.28 448.03 171.94 446.54 171.94Q444.75 171.94 443.57 172.55C442.81 172.95 442.22 173.42 441.79 173.95C441.36 174.46 441.05 174.89 440.88 175.25L440.65 175.25L440.65 172.32L436.32 172.32ZM525.09 191.97C526.33 192.55 527.8 192.84 529.5 192.84C530.99 192.84 532.26 192.63 533.3 192.19C534.34 191.74 535.17 191.18 535.8 190.52C536.44 189.86 536.92 189.21 537.25 188.55C537.6 187.89 537.84 187.34 537.97 186.91L538.16 186.23L534.13 186.23L533.9 186.68C533.78 186.99 533.55 187.34 533.22 187.75C532.89 188.15 532.42 188.52 531.81 188.85C531.21 189.15 530.43 189.31 529.5 189.31C527.85 189.31 526.56 188.75 525.62 187.63C524.68 186.52 524.16 185.19 524.06 183.64L538.35 183.64L538.35 182.47C538.35 180.16 537.96 178.24 537.17 176.69C536.41 175.12 535.35 173.94 533.98 173.16Q533.79 173.04 533.6 172.94Q531.72 171.94 529.31 171.94C527.66 171.94 526.23 172.24 525.01 172.85Q523.67 173.5 522.68 174.49Q522.32 174.84 522.01 175.25C521.23 176.26 520.64 177.39 520.26 178.63C519.88 179.87 519.69 181.12 519.69 182.39Q519.69 183.25 519.81 184.1Q519.95 185.16 520.26 186.19C520.67 187.43 521.26 188.56 522.05 189.57C522.86 190.56 523.87 191.36 525.09 191.97ZM568.51 191.97C569.75 192.55 571.22 192.84 572.91 192.84C574.41 192.84 575.68 192.63 576.71 192.19C577.75 191.74 578.59 191.18 579.22 190.52C579.86 189.86 580.34 189.21 580.67 188.55C581.02 187.89 581.26 187.34 581.39 186.91L581.58 186.23L577.55 186.23L577.32 186.68C577.2 186.99 576.97 187.34 576.64 187.75C576.31 188.15 575.84 188.52 575.23 188.85C574.62 189.15 573.85 189.31 572.91 189.31C571.27 189.31 569.98 188.75 569.04 187.63C568.1 186.52 567.58 185.19 567.48 183.64L581.77 183.64L581.77 182.47C581.77 180.16 581.38 178.24 580.59 176.69C579.83 175.12 578.77 173.94 577.4 173.16Q577.21 173.04 577.02 172.94Q575.14 171.94 572.72 171.94C571.08 171.94 569.65 172.24 568.43 172.85Q567.09 173.5 566.1 174.49Q565.74 174.84 565.43 175.25C564.64 176.26 564.06 177.39 563.68 178.63C563.3 179.87 563.11 181.12 563.11 182.39Q563.11 183.25 563.22 184.1Q563.36 185.16 563.68 186.19C564.09 187.43 564.68 188.56 565.47 189.57C566.28 190.56 567.29 191.36 568.51 191.97ZM600.62 191.36C602.14 192.35 604.01 192.84 606.21 192.84C608.39 192.84 610.23 192.35 611.72 191.36C613.24 190.37 614.38 189.08 615.14 187.48C615.93 185.89 616.32 184.19 616.32 182.39C616.32 180.59 615.93 178.89 615.14 177.3C614.38 175.7 613.24 174.41 611.72 173.42Q609.48 171.94 606.21 171.94Q602.9 171.94 600.62 173.42C599.13 174.41 597.99 175.7 597.2 177.3Q596.74 178.28 596.46 179.32Q596.06 180.8 596.06 182.39Q596.06 183.98 596.46 185.46Q596.74 186.5 597.2 187.48C597.99 189.08 599.13 190.37 600.62 191.36ZM621.32 172.32L621.32 199.91L625.65 199.91L625.65 189.46L625.88 189.46C626.13 189.84 626.5 190.29 626.98 190.83C627.48 191.36 628.15 191.83 628.99 192.23Q630.28 192.84 632.22 192.84C633.71 192.84 635.03 192.55 636.17 191.97C637.31 191.36 638.25 190.56 638.99 189.57C639.75 188.56 640.3 187.43 640.66 186.19Q640.97 185.16 641.11 184.1Q641.23 183.25 641.23 182.39Q641.23 181.53 641.11 180.68Q640.97 179.62 640.66 178.59C640.3 177.35 639.75 176.23 638.99 175.25C638.25 174.23 637.31 173.44 636.17 172.85C635.03 172.24 633.71 171.94 632.22 171.94Q630.28 171.94 628.99 172.55C628.15 172.95 627.48 173.42 626.98 173.95C626.5 174.49 626.13 174.94 625.88 175.32L625.65 175.32L625.65 172.32L621.32 172.32ZM645.84 172.32L645.84 192.46L650.17 192.46L650.17 180.98C650.17 180.15 650.31 179.33 650.59 178.51C650.86 177.68 651.31 176.98 651.92 176.42C652.55 175.87 653.37 175.59 654.39 175.59C655.63 175.59 656.56 176.01 657.2 176.84C657.83 177.68 658.15 178.76 658.15 180.07L658.15 192.46L662.48 192.46L662.48 180.98C662.48 180.15 662.62 179.33 662.9 178.51C663.18 177.68 663.62 176.98 664.23 176.42C664.86 175.87 665.68 175.59 666.7 175.59C667.94 175.59 668.88 176.01 669.51 176.84C670.14 177.68 670.46 178.76 670.46 180.07L670.46 192.46L674.79 192.46L674.79 179.46C674.79 178.05 674.54 176.78 674.03 175.66C673.55 174.52 672.82 173.63 671.83 172.97C670.84 172.28 669.64 171.94 668.22 171.94C666.55 171.94 665.2 172.33 664.19 173.12C663.18 173.9 662.4 174.8 661.87 175.82L661.8 175.82Q661.35 174.74 660.61 173.92Q660.16 173.41 659.59 173L659.58 173Q658.1 171.94 655.87 171.94C654.75 171.94 653.83 172.13 653.09 172.51C652.36 172.87 651.76 173.3 651.31 173.8C650.88 174.31 650.55 174.77 650.32 175.17L650.17 175.17L650.17 172.32L645.84 172.32ZM684.77 191.97C686.01 192.55 687.48 192.84 689.18 192.84C690.67 192.84 691.94 192.63 692.98 192.19C694.02 191.74 694.85 191.18 695.49 190.52C696.12 189.86 696.6 189.21 696.93 188.55C697.29 187.89 697.53 187.34 697.65 186.91L697.84 186.23L693.81 186.23L693.59 186.68C693.46 186.99 693.23 187.34 692.9 187.75C692.57 188.15 692.1 188.52 691.5 188.85C690.89 189.15 690.12 189.31 689.18 189.31C687.53 189.31 686.24 188.75 685.3 187.63C684.37 186.52 683.85 185.19 683.74 183.64L698.03 183.64L698.03 182.47C698.03 180.16 697.64 178.24 696.85 176.69C696.09 175.12 695.03 173.94 693.66 173.16Q693.47 173.04 693.28 172.94Q691.4 171.94 688.99 171.94C687.34 171.94 685.91 172.24 684.69 172.85Q683.35 173.5 682.36 174.49Q682 174.84 681.69 175.25C680.91 176.26 680.32 177.39 679.94 178.63C679.56 179.87 679.37 181.12 679.37 182.39Q679.37 183.25 679.49 184.1Q679.63 185.16 679.94 186.19C680.35 187.43 680.95 188.56 681.73 189.57C682.54 190.56 683.55 191.36 684.77 191.97ZM702.65 172.32L702.65 192.46L706.98 192.46L706.98 181.02C706.98 180.09 707.13 179.21 707.44 178.4C707.74 177.56 708.21 176.89 708.84 176.39C709.5 175.85 710.35 175.59 711.39 175.59C712.71 175.59 713.7 176.01 714.35 176.84C715.04 177.68 715.38 178.7 715.38 179.92L715.38 192.46L719.71 192.46L719.71 179.46C719.71 178.1 719.45 176.84 718.91 175.7C718.41 174.56 717.65 173.65 716.63 172.97C715.62 172.28 714.37 171.94 712.87 171.94C711.68 171.94 710.69 172.14 709.91 172.55C709.15 172.95 708.55 173.42 708.12 173.95C707.69 174.46 707.39 174.89 707.21 175.25L706.98 175.25L706.98 172.32L702.65 172.32ZM783.02 191.36C784.54 192.35 786.4 192.84 788.6 192.84C790.78 192.84 792.62 192.35 794.11 191.36C795.63 190.37 796.77 189.08 797.53 187.48C798.32 185.89 798.71 184.19 798.71 182.39C798.71 180.59 798.32 178.89 797.53 177.3C796.77 175.7 795.63 174.41 794.11 173.42Q791.87 171.94 788.6 171.94Q785.3 171.94 783.02 173.42C781.52 174.41 780.38 175.7 779.6 177.3Q779.13 178.28 778.85 179.32Q778.46 180.8 778.46 182.39Q778.46 183.98 778.85 185.46Q779.13 186.5 779.6 187.48C780.38 189.08 781.52 190.37 783.02 191.36ZM825.19 172.32L825.19 192.46L829.52 192.46L829.52 182.47Q829.52 179.12 830.89 177.64C831.82 176.63 833.18 176.12 834.95 176.12Q835.67 176.12 836.24 176.2L836.81 176.27L836.81 172.09L836.28 172.02C835.95 171.97 835.55 171.94 835.07 171.94C833.49 171.94 832.29 172.26 831.46 172.89C830.64 173.5 830.05 174.2 829.67 174.98L829.52 174.98L829.52 172.32L825.19 172.32ZM844.35 192.19C845.39 192.63 846.7 192.84 848.3 192.84C849.92 192.84 851.3 192.56 852.44 192C853.58 191.42 854.44 190.66 855.03 189.72C855.63 188.76 855.94 187.7 855.94 186.53C855.94 184.78 855.36 183.45 854.19 182.54C853.03 181.61 851.54 180.93 849.74 180.53L847.05 179.92C846.24 179.74 845.58 179.49 845.07 179.16C844.59 178.81 844.35 178.32 844.35 177.72C844.35 177.13 844.6 176.59 845.11 176.08C845.62 175.58 846.44 175.32 847.58 175.32C848.41 175.32 849.07 175.46 849.55 175.74C850.06 175.99 850.44 176.3 850.69 176.65C850.95 176.98 851.11 177.27 851.19 177.53L851.3 177.91L855.37 177.91L855.22 177.34C855.14 176.93 854.96 176.44 854.68 175.85C854.41 175.25 853.99 174.65 853.43 174.07C852.87 173.46 852.11 172.95 851.15 172.55C850.21 172.14 849.02 171.94 847.58 171.94C845.35 171.94 843.58 172.51 842.26 173.65C840.94 174.79 840.28 176.23 840.28 177.98C840.28 179.17 840.56 180.15 841.12 180.91C841.7 181.64 842.45 182.24 843.36 182.69Q844.77 183.34 846.36 183.72L849.1 184.33C849.99 184.53 850.67 184.82 851.15 185.2C851.63 185.58 851.87 186.1 851.87 186.76C851.87 187.44 851.58 188.05 851 188.58C850.44 189.12 849.58 189.38 848.41 189.38C847.45 189.38 846.68 189.23 846.1 188.93C845.51 188.6 845.08 188.23 844.8 187.82C844.53 187.42 844.34 187.06 844.23 186.76L844.12 186.27L839.9 186.27L840.02 186.95C840.09 187.38 840.27 187.93 840.55 188.58C840.85 189.24 841.31 189.9 841.92 190.56C842.52 191.19 843.34 191.74 844.35 192.19ZM864.97 191.97C866.21 192.55 867.68 192.84 869.38 192.84C870.88 192.84 872.14 192.63 873.18 192.19C874.22 191.74 875.06 191.18 875.69 190.52C876.32 189.86 876.8 189.21 877.13 188.55C877.49 187.89 877.73 187.34 877.86 186.91L878.05 186.23L874.02 186.23L873.79 186.68C873.66 186.99 873.43 187.34 873.11 187.75C872.78 188.15 872.31 188.52 871.7 188.85C871.09 189.15 870.32 189.31 869.38 189.31C867.73 189.31 866.44 188.75 865.51 187.63C864.57 186.52 864.05 185.19 863.95 183.64L878.24 183.64L878.24 182.47C878.24 180.16 877.84 178.24 877.06 176.69C876.3 175.12 875.23 173.94 873.87 173.16Q873.68 173.04 873.48 172.94Q871.6 171.94 869.19 171.94C867.54 171.94 866.11 172.24 864.9 172.85Q863.56 173.5 862.56 174.49Q862.21 174.84 861.9 175.25C861.11 176.26 860.53 177.39 860.15 178.63C859.77 179.87 859.58 181.12 859.58 182.39Q859.58 183.25 859.69 184.1Q859.83 185.16 860.15 186.19C860.55 187.43 861.15 188.56 861.93 189.57C862.74 190.56 863.76 191.36 864.97 191.97ZM886.73 192.19C887.77 192.63 889.08 192.84 890.68 192.84C892.3 192.84 893.68 192.56 894.82 192C895.96 191.42 896.82 190.66 897.41 189.72C898.01 188.76 898.32 187.7 898.32 186.53C898.32 184.78 897.73 183.45 896.57 182.54C895.4 181.61 893.92 180.93 892.12 180.53L889.43 179.92C888.61 179.74 887.96 179.49 887.45 179.16C886.97 178.81 886.73 178.32 886.73 177.72C886.73 177.13 886.98 176.59 887.49 176.08C887.99 175.58 888.82 175.32 889.96 175.32C890.79 175.32 891.45 175.46 891.93 175.74C892.44 175.99 892.82 176.3 893.07 176.65C893.33 176.98 893.49 177.27 893.57 177.53L893.68 177.91L897.75 177.91L897.6 177.34C897.52 176.93 897.34 176.44 897.06 175.85C896.78 175.25 896.37 174.65 895.81 174.07C895.25 173.46 894.49 172.95 893.53 172.55C892.59 172.14 891.4 171.94 889.96 171.94C887.73 171.94 885.95 172.51 884.64 173.65C883.32 174.79 882.66 176.23 882.66 177.98C882.66 179.17 882.94 180.15 883.5 180.91C884.08 181.64 884.83 182.24 885.74 182.69Q887.15 183.34 888.74 183.72L891.48 184.33C892.36 184.53 893.05 184.82 893.53 185.2C894.01 185.58 894.25 186.1 894.25 186.76C894.25 187.44 893.96 188.05 893.38 188.58C892.82 189.12 891.96 189.38 890.79 189.38C889.83 189.38 889.06 189.23 888.48 188.93C887.89 188.6 887.46 188.23 887.18 187.82C886.9 187.42 886.71 187.06 886.61 186.76L886.5 186.27L882.28 186.27L882.4 186.95C882.47 187.38 882.65 187.93 882.93 188.58C883.23 189.24 883.69 189.9 884.3 190.56C884.9 191.19 885.71 191.74 886.73 192.19ZM54.61 172.32L61.04 192.46L65.67 192.46L70.04 178.63L74.45 192.46L79.05 192.46L85.51 172.32L81.1 172.32L76.69 186.87L72.06 172.32L68.03 172.32L63.39 186.87L58.98 172.32L54.61 172.32ZM89.76 172.32L89.76 192.46L94.1 192.46L94.1 172.32L89.76 172.32ZM211.41 172.32L211.41 192.46L215.74 192.46L215.74 172.32L211.41 172.32ZM346.3 172.32L346.3 192.46L350.63 192.46L350.63 172.32L346.3 172.32ZM540.86 172.32L548.42 192.46L553.02 192.46L560.62 172.32L556.14 172.32L550.78 187.41L545.31 172.32L540.86 172.32ZM805.11 190.94C806.25 192.21 807.84 192.84 809.86 192.84C811.05 192.84 812.03 192.65 812.79 192.27C813.57 191.89 814.18 191.45 814.61 190.94C815.07 190.41 815.4 189.95 815.6 189.57L815.83 189.57L815.83 192.46L820.16 192.46L820.16 172.32L815.83 172.32L815.83 183.49C815.83 184.43 815.68 185.34 815.37 186.23C815.09 187.09 814.62 187.8 813.97 188.36C813.31 188.91 812.43 189.19 811.34 189.19C810.23 189.19 809.34 188.86 808.68 188.2C808.05 187.52 807.73 186.57 807.73 185.35L807.73 172.32L803.4 172.32L803.4 185.89Q803.4 188.66 804.72 190.46Q804.91 190.71 805.11 190.94ZM257.45 180.6L247.38 180.6C247.53 179.01 248.07 177.75 249.01 176.84C249.95 175.91 251.13 175.44 252.54 175.44C253.81 175.44 254.91 175.85 255.85 176.69C256.81 177.53 257.34 178.83 257.45 180.6ZM317.19 180.6L307.12 180.6C307.27 179.01 307.82 177.75 308.76 176.84C309.69 175.91 310.87 175.44 312.29 175.44C313.56 175.44 314.66 175.85 315.6 176.69C316.56 177.53 317.09 178.83 317.19 180.6ZM534.17 180.6L524.1 180.6Q524.31 178.46 525.46 177.14Q525.59 176.98 525.73 176.84C526.67 175.91 527.85 175.44 529.27 175.44Q530.25 175.44 531.1 175.77Q531.9 176.08 532.57 176.69C533.54 177.53 534.07 178.83 534.17 180.6ZM577.59 180.6L567.52 180.6Q567.72 178.46 568.87 177.14Q569.01 176.98 569.15 176.84C570.09 175.91 571.27 175.44 572.69 175.44Q573.67 175.44 574.52 175.77Q575.31 176.08 575.99 176.69C576.96 177.53 577.49 178.83 577.59 180.6ZM693.85 180.6L683.78 180.6Q683.99 178.46 685.14 177.14Q685.27 176.98 685.42 176.84C686.35 175.91 687.53 175.44 688.95 175.44Q689.93 175.44 690.78 175.77Q691.58 176.08 692.26 176.69C693.22 177.53 693.75 178.83 693.85 180.6ZM874.06 180.6L863.99 180.6Q864.19 178.46 865.34 177.14Q865.47 176.98 865.62 176.84C866.56 175.91 867.73 175.44 869.15 175.44Q870.14 175.44 870.98 175.77Q871.78 176.08 872.46 176.69C873.42 177.53 873.95 178.83 874.06 180.6ZM369 187.82C368.17 188.46 367.13 188.77 365.89 188.77C364.62 188.77 363.57 188.46 362.73 187.82C361.9 187.17 361.28 186.33 360.87 185.32C360.47 184.3 360.26 183.24 360.26 182.12C360.26 181.01 360.47 179.95 360.87 178.93Q361.26 177.96 361.91 177.22Q362.28 176.81 362.73 176.46C363.57 175.83 364.62 175.51 365.89 175.51Q367.54 175.51 368.72 176.26Q368.86 176.36 369 176.46Q369.46 176.81 369.83 177.22Q370.48 177.96 370.86 178.93C371.27 179.95 371.47 181.01 371.47 182.12C371.47 183.24 371.27 184.3 370.86 185.32C370.46 186.33 369.84 187.17 369 187.82ZM418.75 176.2Q419.85 175.55 421.33 175.55Q422.85 175.55 423.94 176.24Q424.18 176.39 424.41 176.58C425.24 177.24 425.86 178.08 426.27 179.12C426.7 180.16 426.91 181.25 426.91 182.39C426.91 183.53 426.7 184.62 426.27 185.66C425.86 186.7 425.24 187.56 424.41 188.24C423.59 188.9 422.57 189.23 421.33 189.23C420.09 189.23 419.05 188.9 418.21 188.24C417.38 187.56 416.74 186.7 416.31 185.66C415.91 184.62 415.7 183.53 415.7 182.39C415.7 181.25 415.91 180.16 416.31 179.12Q416.77 178.01 417.54 177.19Q417.85 176.86 418.21 176.58Q418.47 176.37 418.75 176.2ZM471.05 188.24C470.24 188.9 469.22 189.23 467.97 189.23C466.73 189.23 465.69 188.9 464.86 188.24C464.02 187.56 463.39 186.7 462.96 185.66C462.55 184.62 462.35 183.53 462.35 182.39C462.35 181.25 462.55 180.16 462.96 179.12Q463.42 178.01 464.19 177.19Q464.5 176.86 464.86 176.58Q465.11 176.37 465.39 176.2Q466.49 175.55 467.97 175.55Q469.5 175.55 470.59 176.24Q470.83 176.39 471.05 176.58C471.89 177.24 472.51 178.08 472.91 179.12C473.34 180.16 473.56 181.25 473.56 182.39C473.56 183.53 473.34 184.62 472.91 185.66C472.51 186.7 471.89 187.56 471.05 188.24ZM626.26 185.66C625.85 184.62 625.65 183.53 625.65 182.39C625.65 181.25 625.85 180.16 626.26 179.12Q626.77 177.88 627.65 176.99Q627.87 176.77 628.12 176.58C628.95 175.89 629.99 175.55 631.23 175.55C632.5 175.55 633.54 175.89 634.35 176.58C635.19 177.24 635.81 178.08 636.21 179.12C636.64 180.16 636.86 181.25 636.86 182.39C636.86 183.53 636.64 184.62 636.21 185.66C635.81 186.7 635.19 187.56 634.35 188.24C633.54 188.9 632.5 189.23 631.23 189.23C629.99 189.23 628.95 188.9 628.12 188.24C627.31 187.56 626.69 186.7 626.26 185.66ZM609.33 188.2C608.49 188.84 607.45 189.15 606.21 189.15C604.97 189.15 603.92 188.84 603.06 188.2C602.19 187.57 601.55 186.74 601.12 185.7C600.69 184.66 600.47 183.56 600.47 182.39Q600.47 180.65 601.08 179.17Q601.1 179.12 601.12 179.08C601.55 178.05 602.19 177.21 603.06 176.58C603.92 175.94 604.97 175.63 606.21 175.63C607.45 175.63 608.49 175.94 609.33 176.58C610.19 177.21 610.83 178.05 611.26 179.08C611.72 180.1 611.95 181.2 611.95 182.39C611.95 183.56 611.72 184.66 611.26 185.7C610.83 186.74 610.19 187.57 609.33 188.2ZM791.72 188.2C790.88 188.84 789.84 189.15 788.6 189.15C787.36 189.15 786.31 188.84 785.45 188.2C784.59 187.57 783.94 186.74 783.51 185.7C783.08 184.66 782.86 183.56 782.86 182.39Q782.86 180.65 783.48 179.17Q783.49 179.12 783.51 179.08C783.94 178.05 784.59 177.21 785.45 176.58C786.31 175.94 787.36 175.63 788.6 175.63C789.84 175.63 790.88 175.94 791.72 176.58C792.58 177.21 793.23 178.05 793.66 179.08C794.11 180.1 794.34 181.2 794.34 182.39C794.34 183.56 794.11 184.66 793.66 185.7C793.23 186.74 792.58 187.57 791.72 188.2ZM903.85 192.04C904.38 192.57 905.04 192.84 905.83 192.84C906.61 192.84 907.26 192.57 907.76 192.04Q908.15 191.66 908.35 191.19Q908.56 190.69 908.56 190.1Q908.56 189.51 908.35 189.02Q908.15 188.55 907.76 188.17C907.26 187.63 906.61 187.37 905.83 187.37C905.04 187.37 904.38 187.63 903.85 188.17C903.34 188.7 903.09 189.34 903.09 190.1C903.09 190.84 903.34 191.49 903.85 192.04Z" fill="#262626" fill-opacity="1.000000" fill-rule="evenodd"/>
	<path id="Paragraph" d="M310.87 228.86L310.87 237L312.58 237L312.58 228.86L314.79 228.86L314.79 227.45L312.58 227.45L312.58 226.29Q312.58 225.53 312.86 225.02Q312.92 224.93 312.99 224.86Q313.3 224.52 313.98 224.52Q314.34 224.52 314.62 224.59L314.9 224.65L314.9 223.3L314.58 223.22Q314.27 223.14 313.75 223.14Q312.66 223.14 312.04 223.61Q311.71 223.84 311.48 224.15Q311.27 224.45 311.13 224.8Q310.94 225.33 310.89 225.87Q310.87 226.08 310.87 226.29L310.87 227.45L309.3 227.45L309.3 228.86L310.87 228.86ZM372.01 236.75Q372.82 237.18 373.9 237.18Q374.8 237.18 375.41 236.9Q376.02 236.62 376.4 236.22Q376.78 235.83 376.98 235.48L377.09 235.48L377.09 237L378.8 237L378.8 223.32L377.09 223.32L377.09 228.97L376.98 228.97Q376.78 228.62 376.4 228.24Q376.02 227.85 375.41 227.56Q374.8 227.27 373.9 227.27Q372.82 227.27 372.01 227.7Q371.52 227.96 371.13 228.32Q370.87 228.55 370.66 228.83Q370.57 228.95 370.49 229.08Q370.08 229.69 369.85 230.43Q369.7 230.92 369.63 231.42Q369.58 231.82 369.58 232.23Q369.58 232.58 369.62 232.93Q369.69 233.48 369.85 234.02Q370.07 234.74 370.46 235.33Q370.55 235.48 370.66 235.62Q370.85 235.87 371.08 236.09Q371.49 236.48 372.01 236.75ZM525.85 236.75Q526.67 237.18 527.75 237.18Q528.65 237.18 529.26 236.9Q529.87 236.62 530.25 236.22Q530.63 235.83 530.82 235.48L530.93 235.48L530.93 237L532.64 237L532.64 223.32L530.93 223.32L530.93 228.97L530.82 228.97Q530.63 228.62 530.25 228.24Q529.87 227.85 529.26 227.56Q528.65 227.27 527.75 227.27Q526.67 227.27 525.85 227.7Q525.36 227.96 524.97 228.32Q524.72 228.55 524.51 228.83Q524.41 228.95 524.33 229.08Q523.92 229.69 523.7 230.43Q523.55 230.92 523.48 231.42Q523.43 231.82 523.43 232.23Q523.43 232.58 523.47 232.93Q523.53 233.48 523.7 234.02Q523.92 234.74 524.31 235.33Q524.4 235.48 524.51 235.62Q524.7 235.87 524.93 236.09Q525.34 236.48 525.85 236.75ZM561.14 223.32L561.14 237L562.85 237L562.85 231.61Q562.85 230.92 563.06 230.29Q563.08 230.26 563.09 230.22Q563.28 229.71 563.62 229.35Q563.72 229.25 563.84 229.16Q563.86 229.14 563.88 229.12Q564.37 228.75 565.15 228.75Q565.92 228.75 566.41 229.12Q566.56 229.23 566.69 229.38Q566.8 229.51 566.88 229.65Q567.22 230.21 567.22 230.97L567.22 237L568.93 237L568.93 230.86Q568.93 229.85 568.54 229.04Q568.32 228.57 567.97 228.21Q567.73 227.95 567.42 227.75Q567.4 227.75 567.39 227.74Q566.66 227.27 565.64 227.27Q564.79 227.27 564.23 227.57Q563.67 227.87 563.38 228.25Q563.08 228.62 562.95 228.84L562.85 228.84L562.85 223.32L561.14 223.32ZM674 223.32L674 237L675.71 237L675.71 232.41L679.65 237L681.83 237L677.35 231.79L681.74 227.45L679.51 227.45L675.71 231.27L675.71 223.32L674 223.32ZM688.76 223.32L688.74 237L690.45 237L690.45 223.32L688.76 223.32ZM693.35 223.32L693.33 237L695.04 237L695.04 223.32L693.35 223.32ZM684.38 225.51Q684.62 225.64 684.92 225.64Q685.17 225.64 685.38 225.54Q685.56 225.46 685.72 225.31Q685.89 225.14 685.97 224.92Q686.04 224.75 686.04 224.54Q686.04 224.28 685.94 224.07Q685.86 223.9 685.72 223.75Q685.56 223.59 685.37 223.51Q685.17 223.43 684.92 223.43Q684.62 223.43 684.39 223.55Q684.24 223.63 684.12 223.75Q683.99 223.88 683.92 224.04Q683.81 224.27 683.81 224.54Q683.81 224.76 683.88 224.95Q683.96 225.15 684.12 225.31Q684.24 225.43 684.38 225.51ZM665.06 236.88Q665.88 237.18 667.03 237.18Q668.56 237.18 669.6 236.63Q670.45 236.17 670.96 235.47Q671.07 235.32 671.16 235.16Q671.4 234.75 671.53 234.31Q671.69 233.76 671.69 233.16Q671.69 232.08 671.2 231.34Q671.12 231.2 671.02 231.07Q670.57 230.5 669.89 230.11Q669.06 229.63 668.04 229.38L666.13 228.91Q665.21 228.68 664.69 228.24Q664.47 228.05 664.34 227.81Q664.17 227.49 664.17 227.08Q664.17 226.83 664.23 226.61Q664.37 226.1 664.82 225.68Q665.48 225.06 666.78 225.06Q667.73 225.06 668.29 225.39Q668.85 225.71 669.12 226.13Q669.39 226.55 669.46 226.88L669.53 227.2L671.26 227.2L671.19 226.83Q671.12 226.45 670.88 225.9Q670.65 225.35 670.16 224.8Q669.68 224.25 668.87 223.87Q668.06 223.5 666.83 223.5Q665.57 223.5 664.58 223.94Q663.86 224.26 663.36 224.79Q663.17 224.99 663.02 225.21Q662.96 225.3 662.9 225.39Q662.44 226.16 662.44 227.2Q662.44 228.25 662.92 228.94Q663.01 229.08 663.12 229.21Q663.56 229.72 664.19 230.06Q665 230.48 665.94 230.71L667.7 231.15Q668.78 231.41 669.36 231.9Q669.54 232.05 669.66 232.22Q669.95 232.65 669.95 233.27Q669.95 233.82 669.73 234.26Q669.53 234.64 669.17 234.93Q668.4 235.57 667.07 235.57Q666.19 235.57 665.61 235.32Q665.03 235.07 664.69 234.68Q664.35 234.3 664.18 233.92Q664.01 233.54 663.95 233.29L663.9 233.04L662.1 233.04L662.14 233.33Q662.19 233.63 662.35 234.11Q662.51 234.58 662.84 235.11Q663.16 235.63 663.7 236.11Q664.24 236.58 665.06 236.88ZM255.66 223.68L255.66 237L264.28 237L264.28 235.45L257.42 235.45L257.42 223.68L255.66 223.68ZM354.98 223.68L354.98 237L356.75 237L356.75 223.68L354.98 223.68ZM430.22 223.68L430.22 237L438.77 237L438.77 235.45L431.99 235.45L431.99 230.98L437.85 230.98L437.85 229.44L431.99 229.44L431.99 225.22L438.68 225.22L438.68 223.68L430.22 223.68ZM539.66 223.68L539.66 237L548.21 237L548.21 235.45L541.43 235.45L541.43 230.98L547.29 230.98L547.29 229.44L541.43 229.44L541.43 225.22L548.12 225.22L548.12 223.68L539.66 223.68ZM623.13 232.26L623.13 237L624.88 237L624.88 232.26L629.53 223.68L627.61 223.68L624.01 230.46L620.39 223.68L618.46 223.68L623.13 232.26ZM402.51 236.46Q403.26 237.18 404.7 237.18Q405.27 237.18 405.69 237.1L406.1 237.03L406.1 235.57L405.74 235.63Q405.38 235.68 404.99 235.68Q404.23 235.68 403.84 235.35Q403.8 235.32 403.77 235.28Q403.44 234.95 403.44 234.3L403.44 228.86L405.76 228.86L405.76 227.45L403.44 227.45L403.44 225.06L401.73 225.06L401.73 227.45L400.02 227.45L400.02 228.86L401.73 228.86L401.73 234.3Q401.73 235.52 402.33 236.26Q402.4 236.34 402.47 236.42Q402.49 236.44 402.51 236.46ZM482.61 236.46Q483.36 237.18 484.8 237.18Q485.37 237.18 485.79 237.1L486.2 237.03L486.2 235.57L485.84 235.63Q485.48 235.68 485.09 235.68Q484.33 235.68 483.94 235.35Q483.9 235.32 483.87 235.28Q483.54 234.95 483.54 234.3L483.54 228.86L485.86 228.86L485.86 227.45L483.54 227.45L483.54 225.06L481.83 225.06L481.83 227.45L480.12 227.45L480.12 228.86L481.83 228.86L481.83 234.3Q481.83 235.52 482.43 236.26Q482.5 236.34 482.57 236.42Q482.59 236.44 482.61 236.46ZM268.3 236.75Q269.16 237.18 270.33 237.18Q271.37 237.18 272.07 236.86Q272.78 236.55 273.23 236.09Q273.68 235.63 273.91 235.18Q274.14 234.73 274.23 234.42L274.32 234.1L272.73 234.1L272.62 234.34Q272.53 234.58 272.25 234.91Q271.99 235.23 271.53 235.47Q271.07 235.72 270.33 235.72Q269.55 235.72 268.98 235.38Q268.92 235.35 268.87 235.31Q268.62 235.15 268.42 234.94Q268.12 234.63 267.93 234.24Q267.92 234.22 267.91 234.21Q267.59 233.54 267.54 232.75L274.43 232.75L274.43 232.25Q274.43 230.59 273.89 229.49Q273.44 228.56 272.69 228.02Q272.56 227.92 272.42 227.83Q272.32 227.78 272.23 227.73Q271.36 227.27 270.26 227.27Q269.1 227.27 268.26 227.7Q267.72 227.98 267.29 228.39Q267.07 228.6 266.88 228.84Q266.71 229.07 266.57 229.31Q266.25 229.84 266.07 230.44Q265.87 231.12 265.83 231.81Q265.81 232.02 265.81 232.23Q265.81 232.68 265.88 233.12Q265.94 233.57 266.08 234.02Q266.25 234.55 266.52 235.03Q266.69 235.33 266.9 235.61Q267.02 235.77 267.15 235.91Q267.63 236.42 268.3 236.75ZM282.34 227.56Q281.73 227.27 280.82 227.27Q279.74 227.27 278.93 227.7Q278.44 227.96 278.05 228.32Q277.79 228.55 277.58 228.83Q277.49 228.95 277.41 229.08Q277 229.69 276.77 230.43Q276.62 230.92 276.56 231.42Q276.5 231.82 276.5 232.23Q276.5 232.58 276.54 232.93Q276.61 233.48 276.77 234.02Q276.99 234.74 277.38 235.33Q277.48 235.48 277.58 235.62Q277.77 235.87 278 236.09Q278.41 236.48 278.93 236.75Q279.74 237.18 280.82 237.18Q281.73 237.18 282.34 236.9Q282.95 236.62 283.32 236.22Q283.7 235.83 283.9 235.48L284.01 235.48L284.01 237L285.72 237L285.72 227.45L284.01 227.45L284.01 228.97L283.9 228.97Q283.7 228.62 283.32 228.24Q282.95 227.85 282.34 227.56ZM288.24 227.45L288.24 237L289.95 237L289.95 231.94Q289.95 230.33 290.62 229.63Q290.72 229.52 290.84 229.43Q291.48 228.91 292.54 228.91Q292.85 228.91 293.12 228.94L293.4 228.97L293.4 227.33L293.15 227.3Q292.9 227.27 292.6 227.27Q291.51 227.27 290.92 227.69Q290.33 228.11 290.02 228.64L289.95 228.64L289.95 227.45L288.24 227.45ZM295.3 227.45L295.3 237L297.01 237L297.01 231.61Q297.01 230.92 297.22 230.29Q297.23 230.26 297.25 230.22Q297.44 229.71 297.78 229.35Q297.88 229.25 297.99 229.16Q298.01 229.14 298.04 229.12Q298.53 228.75 299.31 228.75Q300.09 228.75 300.58 229.13Q300.73 229.24 300.85 229.38Q300.95 229.51 301.04 229.65Q301.38 230.21 301.38 230.97L301.38 237L303.09 237L303.09 230.86Q303.09 229.85 302.7 229.04Q302.48 228.57 302.13 228.21Q301.88 227.95 301.58 227.75Q301.56 227.75 301.55 227.74Q300.82 227.27 299.8 227.27Q298.95 227.27 298.39 227.57Q297.83 227.87 297.53 228.25Q297.24 228.62 297.11 228.84L297.01 228.84L297.01 227.45L295.3 227.45ZM316.7 227.45L316.7 237L318.41 237L318.41 231.94Q318.41 230.33 319.08 229.63Q319.18 229.52 319.29 229.43Q319.94 228.91 321 228.91Q321.3 228.91 321.58 228.94L321.86 228.97L321.86 227.33L321.61 227.3Q321.36 227.27 321.05 227.27Q319.97 227.27 319.38 227.69Q318.79 228.11 318.48 228.64L318.41 228.64L318.41 227.45L316.7 227.45ZM324.98 236.47Q326.03 237.18 327.55 237.18Q329.08 237.18 330.12 236.46Q330.67 236.09 331.08 235.6Q331.45 235.15 331.71 234.62Q331.98 234.05 332.11 233.46Q332.25 232.86 332.25 232.23Q332.25 231.43 332.04 230.69Q331.91 230.25 331.71 229.82Q331.47 229.32 331.12 228.9Q330.7 228.38 330.12 227.99Q329.08 227.27 327.55 227.27Q326.03 227.27 324.98 227.98L324.98 227.99Q324.41 228.37 324 228.88Q323.64 229.31 323.4 229.82Q323.19 230.25 323.06 230.69Q322.85 231.43 322.85 232.23Q322.85 232.86 322.99 233.46Q323.13 234.05 323.4 234.62Q323.66 235.17 324.04 235.62Q324.44 236.1 324.98 236.46L324.98 236.47ZM334.59 227.45L334.59 237L336.3 237L336.3 231.65Q336.3 231 336.52 230.33Q336.67 229.83 336.98 229.46Q337.09 229.32 337.22 229.2Q337.28 229.15 337.35 229.1Q337.82 228.75 338.55 228.75Q339.23 228.75 339.68 229.07Q339.87 229.21 340.01 229.41Q340.51 230.07 340.51 231.13L340.51 237L342.22 237L342.22 231.65Q342.22 230.98 342.43 230.32Q342.59 229.85 342.88 229.48Q343 229.33 343.15 229.2Q343.21 229.14 343.28 229.09Q343.75 228.75 344.47 228.75Q345.12 228.75 345.56 229.06Q345.77 229.2 345.93 229.41Q346.43 230.07 346.43 231.13L346.43 237L348.14 237L348.14 231.04Q348.14 229.48 347.41 228.46Q347.36 228.4 347.3 228.33Q347.04 227.99 346.7 227.76Q345.97 227.27 344.92 227.27Q343.75 227.27 343.02 227.82Q342.55 228.18 342.21 228.64Q342.04 228.89 341.9 229.16L341.88 229.16Q341.65 228.61 341.26 228.2Q341.05 227.97 340.79 227.79Q340.75 227.76 340.71 227.73Q340 227.27 339 227.27Q338.19 227.27 337.66 227.56Q337.13 227.83 336.82 228.2Q336.52 228.57 336.37 228.84L336.3 228.84L336.3 227.45L334.59 227.45ZM359.45 227.45L359.45 237L361.16 237L361.16 231.61Q361.16 230.92 361.37 230.29Q361.39 230.26 361.4 230.22Q361.59 229.71 361.93 229.35Q362.03 229.25 362.15 229.16Q362.17 229.14 362.19 229.12Q362.68 228.75 363.46 228.75Q364.24 228.75 364.73 229.13Q364.88 229.24 365 229.38Q365.11 229.51 365.19 229.65Q365.53 230.21 365.53 230.97L365.53 237L367.24 237L367.24 230.86Q367.24 229.85 366.85 229.04Q366.63 228.57 366.28 228.21Q366.04 227.95 365.73 227.75Q365.72 227.75 365.7 227.74Q364.97 227.27 363.95 227.27Q363.1 227.27 362.54 227.57Q361.98 227.87 361.69 228.25Q361.39 228.62 361.26 228.84L361.16 228.84L361.16 227.45L359.45 227.45ZM393.37 236.87Q394.08 237.18 395.18 237.18Q396.29 237.18 397.07 236.78Q397.71 236.45 398.11 235.93Q398.19 235.83 398.26 235.71Q398.46 235.38 398.56 235.02Q398.67 234.65 398.67 234.24Q398.67 233.37 398.26 232.78Q398.09 232.55 397.87 232.36Q397.07 231.7 395.84 231.41L394.53 231.11Q393.94 230.97 393.57 230.69Q393.37 230.54 393.28 230.34Q393.2 230.17 393.2 229.96Q393.2 229.86 393.21 229.77Q393.28 229.41 393.59 229.09Q393.99 228.7 394.86 228.7Q395.48 228.7 395.86 228.91Q396.24 229.11 396.43 229.38Q396.62 229.63 396.67 229.84L396.73 230.05L398.38 230.05L398.33 229.77Q398.27 229.49 398.09 229.08Q397.9 228.66 397.51 228.25Q397.12 227.83 396.47 227.56Q395.83 227.27 394.84 227.27Q393.53 227.27 392.66 227.89Q392.55 227.97 392.44 228.06Q392 228.44 391.77 228.92Q391.52 229.43 391.52 230.07Q391.52 230.81 391.87 231.33Q391.89 231.36 391.91 231.39Q392 231.51 392.11 231.63Q392.45 231.99 392.93 232.23Q393.56 232.53 394.28 232.71L395.57 233.02Q396.26 233.18 396.63 233.49Q396.77 233.6 396.85 233.75Q397 233.99 397 234.31Q397 234.57 396.91 234.8Q396.79 235.08 396.53 235.31Q396.06 235.72 395.22 235.72Q394.48 235.72 394.03 235.47Q393.59 235.23 393.39 234.92Q393.18 234.6 393.11 234.36L393.05 234.12L391.33 234.12L391.38 234.42Q391.43 234.73 391.63 235.19Q391.83 235.65 392.24 236.11Q392.66 236.56 393.37 236.87ZM408.35 227.45L408.35 237L410.06 237L410.06 231.94Q410.06 230.33 410.74 229.63Q410.84 229.52 410.95 229.43Q411.6 228.91 412.66 228.91Q412.96 228.91 413.24 228.94L413.52 228.97L413.52 227.33L413.27 227.3Q413.02 227.27 412.71 227.27Q411.63 227.27 411.04 227.69Q410.44 228.11 410.13 228.64L410.06 228.64L410.06 227.45L408.35 227.45ZM451.45 227.45L451.45 240.52L453.16 240.52L453.16 235.48L453.26 235.48Q453.48 235.81 453.85 236.2Q454.22 236.6 454.83 236.89Q455.44 237.18 456.34 237.18Q457.42 237.18 458.23 236.75Q458.75 236.48 459.16 236.09Q459.39 235.87 459.58 235.62Q459.71 235.45 459.83 235.26Q460.19 234.69 460.39 234.02Q460.56 233.47 460.62 232.91Q460.66 232.57 460.66 232.23Q460.66 231.83 460.61 231.45Q460.55 230.93 460.39 230.43Q460.18 229.73 459.8 229.15Q459.7 228.99 459.58 228.83Q459.37 228.55 459.11 228.32Q458.72 227.96 458.23 227.7Q457.42 227.27 456.34 227.27Q455.44 227.27 454.83 227.56Q454.22 227.83 453.85 228.23Q453.48 228.62 453.26 228.97L453.16 228.97L453.16 227.45L451.45 227.45ZM465.22 236.75Q466.08 237.18 467.25 237.18Q468.29 237.18 468.99 236.86Q469.7 236.55 470.15 236.09Q470.6 235.63 470.83 235.18Q471.06 234.73 471.15 234.42L471.24 234.1L469.65 234.1L469.54 234.34Q469.45 234.58 469.17 234.91Q468.91 235.23 468.45 235.47Q467.99 235.72 467.25 235.72Q466.47 235.72 465.9 235.38Q465.84 235.35 465.79 235.31Q465.54 235.15 465.34 234.94Q465.04 234.63 464.85 234.24L464.83 234.21Q464.51 233.54 464.46 232.75L471.35 232.75L471.35 232.25Q471.35 230.59 470.81 229.49Q470.36 228.56 469.61 228.02Q469.48 227.92 469.34 227.83Q469.24 227.78 469.15 227.73Q468.28 227.27 467.18 227.27Q466.02 227.27 465.18 227.7Q464.64 227.98 464.21 228.39Q463.99 228.6 463.8 228.84Q463.63 229.07 463.49 229.31Q463.17 229.84 462.99 230.44Q462.79 231.12 462.75 231.81Q462.73 232.02 462.73 232.23Q462.73 232.68 462.8 233.12Q462.86 233.57 463 234.02Q463.17 234.55 463.44 235.03Q463.61 235.33 463.82 235.61Q463.94 235.77 464.07 235.91Q464.55 236.42 465.22 236.75ZM473.69 227.45L473.69 237L475.4 237L475.4 231.94Q475.4 230.33 476.08 229.63Q476.18 229.52 476.29 229.43Q476.94 228.91 478 228.91Q478.3 228.91 478.58 228.94L478.86 228.97L478.86 227.33L478.61 227.3Q478.36 227.27 478.05 227.27Q476.97 227.27 476.38 227.69Q475.78 228.11 475.47 228.64L475.4 228.64L475.4 227.45L473.69 227.45ZM490.13 236.87Q490.85 237.18 491.94 237.18Q493.06 237.18 493.83 236.78Q494.48 236.45 494.87 235.93Q494.95 235.83 495.02 235.71Q495.23 235.38 495.33 235.02Q495.44 234.65 495.44 234.24Q495.44 233.37 495.03 232.78Q494.86 232.55 494.63 232.36Q493.83 231.7 492.61 231.41L491.3 231.11Q490.7 230.97 490.34 230.69Q490.14 230.54 490.05 230.34Q489.97 230.17 489.97 229.96Q489.97 229.86 489.98 229.77Q490.05 229.41 490.36 229.09Q490.76 228.7 491.62 228.7Q492.25 228.7 492.63 228.91Q493.01 229.11 493.2 229.38Q493.39 229.63 493.44 229.84L493.5 230.05L495.15 230.05L495.09 229.77Q495.04 229.49 494.85 229.08Q494.66 228.66 494.28 228.25Q493.89 227.83 493.24 227.56Q492.59 227.27 491.61 227.27Q490.3 227.27 489.43 227.89Q489.32 227.97 489.21 228.06Q488.77 228.44 488.54 228.92Q488.29 229.43 488.29 230.07Q488.29 230.81 488.64 231.33Q488.66 231.36 488.68 231.39Q488.77 231.51 488.88 231.63Q489.21 231.99 489.69 232.23Q490.33 232.53 491.05 232.71L492.34 233.02Q493.03 233.18 493.39 233.49Q493.53 233.6 493.62 233.75Q493.76 233.99 493.76 234.31Q493.76 234.57 493.67 234.8Q493.56 235.08 493.29 235.31Q492.83 235.72 491.98 235.72Q491.25 235.72 490.8 235.47Q490.36 235.23 490.16 234.92Q489.95 234.6 489.88 234.36L489.82 234.12L488.09 234.12L488.15 234.42Q488.2 234.73 488.4 235.19Q488.6 235.65 489.01 236.11Q489.43 236.56 490.13 236.87ZM507.39 227.56Q506.78 227.27 505.88 227.27Q504.8 227.27 503.98 227.7Q503.49 227.96 503.1 228.32Q502.85 228.55 502.64 228.83Q502.54 228.95 502.46 229.08Q502.05 229.69 501.83 230.43Q501.68 230.92 501.61 231.42Q501.56 231.82 501.56 232.23Q501.56 232.58 501.6 232.93Q501.66 233.48 501.83 234.02Q502.05 234.74 502.44 235.33Q502.53 235.48 502.64 235.62Q502.83 235.87 503.06 236.09Q503.47 236.48 503.98 236.75Q504.8 237.18 505.88 237.18Q506.78 237.18 507.39 236.9Q508 236.62 508.38 236.22Q508.76 235.83 508.95 235.48L509.06 235.48L509.06 237L510.77 237L510.77 227.45L509.06 227.45L509.06 228.97L508.95 228.97Q508.76 228.62 508.38 228.24Q508 227.85 507.39 227.56ZM513.29 227.45L513.29 237L515 237L515 231.61Q515 230.92 515.22 230.29Q515.23 230.26 515.25 230.22Q515.43 229.71 515.78 229.35Q515.88 229.25 515.99 229.16Q516.01 229.14 516.03 229.12Q516.53 228.75 517.31 228.75Q518.09 228.75 518.58 229.13Q518.72 229.24 518.84 229.38Q518.95 229.51 519.04 229.65Q519.38 230.21 519.38 230.97L519.38 237L521.09 237L521.09 230.86Q521.09 229.85 520.7 229.04Q520.47 228.57 520.13 228.21Q519.88 227.95 519.57 227.75Q519.56 227.75 519.55 227.74Q518.82 227.27 517.79 227.27Q516.95 227.27 516.39 227.57Q515.83 227.87 515.53 228.25Q515.24 228.62 515.11 228.84L515 228.84L515 227.45L513.29 227.45ZM550.64 227.45L550.64 237L552.35 237L552.35 231.61Q552.35 230.92 552.57 230.29Q552.58 230.26 552.59 230.22Q552.78 229.71 553.13 229.35Q553.23 229.25 553.34 229.16Q553.36 229.14 553.38 229.12Q553.88 228.75 554.66 228.75Q555.44 228.75 555.93 229.13Q556.07 229.24 556.19 229.38Q556.3 229.51 556.39 229.65Q556.73 230.21 556.73 230.97L556.73 237L558.44 237L558.44 230.86Q558.44 229.85 558.05 229.04Q557.82 228.57 557.48 228.21Q557.23 227.95 556.92 227.75Q556.91 227.75 556.9 227.74Q556.17 227.27 555.14 227.27Q554.3 227.27 553.74 227.57Q553.18 227.87 552.88 228.25Q552.59 228.62 552.46 228.84L552.35 228.84L552.35 227.45L550.64 227.45ZM577.1 227.56Q576.49 227.27 575.59 227.27Q574.51 227.27 573.7 227.7Q573.21 227.96 572.82 228.32Q572.56 228.55 572.35 228.83Q572.26 228.95 572.18 229.08Q571.77 229.69 571.54 230.43Q571.39 230.92 571.32 231.42Q571.27 231.82 571.27 232.23Q571.27 232.58 571.31 232.93Q571.38 233.48 571.54 234.02Q571.76 234.74 572.15 235.33Q572.24 235.48 572.35 235.62Q572.54 235.87 572.77 236.09Q573.18 236.48 573.7 236.75Q574.51 237.18 575.59 237.18Q576.49 237.18 577.1 236.9Q577.71 236.62 578.09 236.22Q578.47 235.83 578.67 235.48L578.78 235.48L578.78 237L580.49 237L580.49 227.45L578.78 227.45L578.78 228.97L578.67 228.97Q578.47 228.62 578.09 228.24Q577.71 227.85 577.1 227.56ZM583.01 227.45L583.01 237L584.72 237L584.72 231.61Q584.72 230.92 584.93 230.29Q584.95 230.26 584.96 230.22Q585.15 229.71 585.49 229.35Q585.59 229.25 585.71 229.16Q585.73 229.14 585.75 229.12Q586.24 228.75 587.02 228.75Q587.8 228.75 588.29 229.13Q588.44 229.24 588.56 229.38Q588.67 229.51 588.75 229.65Q589.09 230.21 589.09 230.97L589.09 237L590.8 237L590.8 230.86Q590.8 229.85 590.41 229.04Q590.19 228.57 589.84 228.21Q589.59 227.95 589.29 227.75Q589.28 227.75 589.26 227.74Q588.53 227.27 587.51 227.27Q586.66 227.27 586.1 227.57Q585.54 227.87 585.25 228.25Q584.95 228.62 584.82 228.84L584.72 228.84L584.72 227.45L583.01 227.45ZM595.79 236.75Q596.67 237.18 597.84 237.18Q598.99 237.18 599.75 236.83Q600.5 236.49 600.96 235.98Q601.42 235.47 601.65 234.95Q601.87 234.44 601.94 234.1L602.02 233.76L600.36 233.76L600.27 234.06Q600.18 234.35 599.93 234.73Q599.68 235.11 599.17 235.4Q598.67 235.7 597.84 235.7Q596.94 235.7 596.3 235.29Q596.24 235.25 596.17 235.21Q595.89 235 595.67 234.74Q595.36 234.38 595.16 233.92Q595.09 233.73 595.03 233.54Q594.83 232.91 594.83 232.23Q594.83 231.49 595.06 230.82Q595.1 230.68 595.16 230.54Q595.37 230.05 595.69 229.68Q595.91 229.44 596.17 229.25Q596.24 229.2 596.32 229.15Q596.95 228.75 597.84 228.75Q598.67 228.75 599.17 229.05Q599.68 229.34 599.93 229.72Q600.18 230.1 600.27 230.4L600.36 230.69L602.02 230.69L601.94 230.36Q601.87 230.01 601.65 229.5Q601.42 228.98 600.96 228.47Q600.5 227.96 599.75 227.62Q598.99 227.27 597.84 227.27Q596.65 227.27 595.77 227.7Q595.1 228.02 594.61 228.51Q594.45 228.67 594.3 228.84Q594 229.22 593.77 229.64Q593.57 230.02 593.43 230.43Q593.28 230.89 593.21 231.35Q593.14 231.78 593.14 232.23Q593.14 232.52 593.17 232.81Q593.24 233.42 593.44 234.02Q593.61 234.55 593.89 235.02Q594.08 235.33 594.32 235.62Q594.4 235.72 594.5 235.82Q595.03 236.39 595.79 236.75ZM606.67 236.75Q607.53 237.18 608.69 237.18Q609.74 237.18 610.44 236.86Q611.14 236.55 611.59 236.09Q612.04 235.63 612.28 235.18Q612.51 234.73 612.6 234.42L612.69 234.1L611.09 234.1L610.99 234.34Q610.89 234.58 610.62 234.91Q610.35 235.23 609.89 235.47Q609.43 235.72 608.69 235.72Q607.92 235.72 607.34 235.38Q607.29 235.35 607.24 235.31Q606.99 235.15 606.78 234.94Q606.49 234.63 606.29 234.24L606.28 234.21Q605.96 233.54 605.9 232.75L612.8 232.75L612.8 232.25Q612.8 230.59 612.26 229.49Q611.8 228.56 611.06 228.02Q610.92 227.92 610.78 227.83Q610.69 227.78 610.59 227.73Q609.72 227.27 608.62 227.27Q607.47 227.27 606.63 227.7Q606.08 227.98 605.65 228.39Q605.43 228.6 605.24 228.84Q605.07 229.07 604.93 229.31Q604.62 229.84 604.44 230.44Q604.24 231.12 604.19 231.81Q604.18 232.02 604.18 232.23Q604.18 232.68 604.24 233.12Q604.31 233.57 604.44 234.02Q604.61 234.55 604.88 235.03Q605.05 235.33 605.26 235.61Q605.38 235.77 605.51 235.91Q606 236.42 606.67 236.75ZM631.39 236.47Q632.44 237.18 633.97 237.18Q635.5 237.18 636.54 236.46Q637.09 236.09 637.5 235.6Q637.87 235.15 638.12 234.62Q638.39 234.05 638.53 233.46Q638.66 232.86 638.66 232.23Q638.66 231.43 638.45 230.69Q638.33 230.25 638.12 229.82Q637.88 229.32 637.53 228.9Q637.11 228.38 636.54 227.99Q635.5 227.27 633.97 227.27Q632.44 227.27 631.39 227.98L631.39 227.99Q630.83 228.37 630.41 228.88Q630.06 229.31 629.81 229.82Q629.61 230.25 629.48 230.69Q629.27 231.43 629.27 232.23Q629.27 232.86 629.4 233.46Q629.54 234.05 629.81 234.62Q630.07 235.17 630.45 235.62Q630.85 236.1 631.39 236.46L631.39 236.47ZM651.19 227.45L651.19 237L652.9 237L652.9 231.94Q652.9 230.33 653.57 229.63Q653.68 229.52 653.79 229.43Q654.44 228.91 655.49 228.91Q655.8 228.91 656.08 228.94L656.36 228.97L656.36 227.33L656.11 227.3Q655.86 227.27 655.55 227.27Q654.47 227.27 653.87 227.69Q653.28 228.11 652.97 228.64L652.9 228.64L652.9 227.45L651.19 227.45ZM699.42 236.87Q700.13 237.18 701.23 237.18Q702.35 237.18 703.12 236.78Q703.77 236.45 704.16 235.93Q704.24 235.83 704.31 235.71Q704.51 235.38 704.62 235.02Q704.72 234.65 704.72 234.24Q704.72 233.37 704.31 232.78Q704.15 232.55 703.92 232.36Q703.12 231.7 701.9 231.41L700.58 231.11Q699.99 230.97 699.62 230.69Q699.43 230.54 699.33 230.34Q699.25 230.17 699.25 229.96Q699.25 229.86 699.27 229.77Q699.33 229.41 699.65 229.09Q700.04 228.7 700.91 228.7Q701.54 228.7 701.92 228.91Q702.29 229.11 702.48 229.38Q702.67 229.63 702.72 229.84L702.78 230.05L704.43 230.05L704.38 229.77Q704.33 229.49 704.14 229.08Q703.95 228.66 703.56 228.25Q703.18 227.83 702.53 227.56Q701.88 227.27 700.89 227.27Q699.58 227.27 698.71 227.89Q698.6 227.97 698.5 228.06Q698.05 228.44 697.82 228.92Q697.58 229.43 697.58 230.07Q697.58 230.81 697.92 231.33Q697.94 231.36 697.96 231.39Q698.06 231.51 698.16 231.63Q698.5 231.99 698.98 232.23Q699.61 232.53 700.33 232.71L701.63 233.02Q702.31 233.18 702.68 233.49Q702.82 233.6 702.91 233.75Q703.05 233.99 703.05 234.31Q703.05 234.57 702.96 234.8Q702.84 235.08 702.58 235.31Q702.11 235.72 701.27 235.72Q700.53 235.72 700.09 235.47Q699.65 235.23 699.44 234.92Q699.23 234.6 699.17 234.36L699.11 234.12L697.38 234.12L697.43 234.42Q697.49 234.73 697.68 235.19Q697.88 235.65 698.29 236.11Q698.71 236.56 699.42 236.87ZM382.83 236.7Q383.56 237.18 384.61 237.18Q385.51 237.18 386.07 236.88Q386.63 236.58 386.93 236.21Q387.24 235.84 387.35 235.63L387.45 235.63L387.45 237L389.17 237L389.17 227.45L387.45 227.45L387.45 232.66Q387.45 233 387.4 233.34Q387.34 233.73 387.22 234.1Q387.05 234.6 386.73 234.98Q386.61 235.12 386.46 235.25Q386.42 235.28 386.38 235.32Q385.88 235.7 385.08 235.7Q384.42 235.7 383.96 235.39Q383.83 235.31 383.72 235.2Q383.67 235.15 383.63 235.1Q383.21 234.6 383.21 233.76L383.21 227.45L381.5 227.45L381.5 233.84Q381.5 235.27 382.2 236.13Q382.27 236.22 382.34 236.3Q382.56 236.53 382.83 236.7ZM415.06 240.47Q415.35 240.51 415.77 240.51Q417.18 240.51 418.2 239.87Q418.36 239.77 418.51 239.66Q419.62 238.81 420.32 237.01L424.02 227.45L422.21 227.45L419.44 234.91L416.69 227.45L414.91 227.45L418.6 237.14Q418.13 238.15 417.45 238.59Q416.78 239.03 415.71 239.03Q415.38 239.03 415.08 239L414.78 238.98L414.78 240.43L415.06 240.47ZM443.8 232.25L440.68 237L442.54 237L444.97 233.23L447.41 237L449.27 237L446.1 232.25L449.29 227.45L447.43 227.45L444.97 231.23L442.52 227.45L440.66 227.45L443.8 232.25ZM642.33 236.7Q643.07 237.18 644.12 237.18Q645.02 237.18 645.58 236.88Q646.13 236.58 646.44 236.21Q646.74 235.84 646.85 235.63L646.96 235.63L646.96 237L648.67 237L648.67 227.45L646.96 227.45L646.96 232.66Q646.96 233 646.91 233.34Q646.85 233.73 646.73 234.1Q646.56 234.6 646.24 234.98Q646.12 235.12 645.97 235.25Q645.93 235.28 645.89 235.32Q645.38 235.7 644.59 235.7Q643.92 235.7 643.46 235.39Q643.34 235.31 643.22 235.2Q643.18 235.15 643.13 235.1Q642.71 234.6 642.71 233.76L642.71 227.45L641 227.45L641 233.84Q641 235.27 641.7 236.13Q641.77 236.22 641.85 236.3Q642.07 236.53 642.33 236.7ZM684.08 227.45L684.08 237L685.79 237L685.79 227.45L684.08 227.45ZM272.76 231.41L267.56 231.41Q267.67 230.32 268.25 229.62Q268.32 229.54 268.4 229.46Q268.64 229.22 268.93 229.06Q269.5 228.73 270.26 228.73Q270.59 228.73 270.9 228.81Q271.18 228.89 271.45 229.02Q271.56 229.08 271.66 229.15Q272.07 229.42 272.36 229.89Q272.73 230.48 272.76 231.41ZM279.76 229.07Q280.34 228.73 281.11 228.73Q281.9 228.73 282.47 229.09Q282.59 229.16 282.7 229.25Q282.92 229.42 283.1 229.62Q283.45 230.03 283.66 230.55Q283.74 230.75 283.8 230.95Q283.98 231.56 283.98 232.23Q283.98 232.64 283.9 233.03Q283.82 233.47 283.66 233.89Q283.45 234.43 283.09 234.84Q282.91 235.04 282.7 235.21Q282.6 235.29 282.49 235.36Q281.91 235.72 281.11 235.72Q280.33 235.72 279.75 235.37Q279.62 235.3 279.51 235.21Q279.28 235.03 279.1 234.82Q278.75 234.42 278.54 233.89Q278.38 233.48 278.31 233.06Q278.23 232.65 278.23 232.23Q278.23 231.55 278.42 230.92Q278.47 230.74 278.54 230.55Q278.75 230.04 279.09 229.64Q279.28 229.43 279.51 229.25Q279.63 229.15 279.76 229.07ZM375.56 235.36Q374.99 235.72 374.19 235.72Q373.4 235.72 372.83 235.37Q372.7 235.3 372.58 235.21Q372.36 235.03 372.18 234.82Q371.83 234.42 371.62 233.89Q371.46 233.48 371.38 233.06Q371.31 232.65 371.31 232.23Q371.31 231.55 371.49 230.92Q371.55 230.74 371.62 230.55Q371.83 230.04 372.17 229.64Q372.36 229.43 372.58 229.25Q372.71 229.15 372.84 229.07Q373.41 228.73 374.19 228.73Q374.98 228.73 375.55 229.09Q375.67 229.16 375.78 229.25Q375.99 229.42 376.17 229.62Q376.53 230.03 376.74 230.55Q376.82 230.75 376.88 230.95Q377.05 231.56 377.05 232.23Q377.05 232.64 376.98 233.03Q376.9 233.47 376.74 233.89Q376.52 234.43 376.17 234.84Q375.99 235.04 375.78 235.21Q375.68 235.29 375.56 235.36ZM453.27 233.06Q453.19 232.65 453.19 232.23Q453.19 231.55 453.38 230.92Q453.43 230.74 453.5 230.55Q453.72 230.01 454.08 229.6Q454.25 229.41 454.46 229.25Q454.57 229.16 454.69 229.08Q455.27 228.73 456.05 228.73Q456.89 228.73 457.48 229.12Q457.57 229.18 457.66 229.25Q457.88 229.42 458.06 229.62Q458.41 230.03 458.62 230.55Q458.7 230.75 458.76 230.95Q458.94 231.56 458.94 232.23Q458.94 232.64 458.86 233.03Q458.78 233.47 458.62 233.89Q458.41 234.43 458.05 234.84Q457.87 235.04 457.66 235.21Q457.58 235.27 457.49 235.33Q456.9 235.72 456.05 235.72Q455.26 235.72 454.68 235.36Q454.56 235.29 454.46 235.21Q454.26 235.05 454.09 234.86Q453.72 234.44 453.5 233.89Q453.34 233.48 453.27 233.06ZM469.68 231.41L464.48 231.41Q464.59 230.32 465.17 229.62Q465.24 229.54 465.32 229.46Q465.56 229.22 465.85 229.06Q466.42 228.73 467.18 228.73Q467.51 228.73 467.82 228.81Q468.1 228.89 468.37 229.02Q468.48 229.08 468.58 229.15Q468.99 229.42 469.28 229.89Q469.65 230.48 469.68 231.41ZM504.82 229.07Q505.39 228.73 506.16 228.73Q506.95 228.73 507.53 229.09Q507.65 229.16 507.75 229.25Q507.97 229.42 508.15 229.62Q508.5 230.03 508.71 230.55Q508.79 230.75 508.85 230.95Q509.03 231.56 509.03 232.23Q509.03 232.64 508.96 233.03Q508.88 233.47 508.71 233.89Q508.5 234.43 508.14 234.84Q507.97 235.04 507.75 235.21Q507.65 235.29 507.54 235.36Q506.96 235.72 506.16 235.72Q505.38 235.72 504.8 235.37Q504.68 235.3 504.56 235.21Q504.34 235.03 504.15 234.82Q503.8 234.42 503.6 233.89Q503.44 233.48 503.36 233.06Q503.29 232.65 503.29 232.23Q503.29 231.55 503.47 230.92Q503.53 230.74 503.6 230.55Q503.8 230.04 504.14 229.64Q504.33 229.43 504.56 229.25Q504.68 229.15 504.82 229.07ZM529.41 235.36Q528.83 235.72 528.03 235.72Q527.25 235.72 526.67 235.37Q526.55 235.3 526.43 235.21Q526.21 235.03 526.02 234.82Q525.67 234.42 525.47 233.89Q525.31 233.48 525.23 233.06Q525.15 232.65 525.15 232.23Q525.15 231.55 525.34 230.92Q525.4 230.74 525.47 230.55Q525.67 230.04 526.01 229.64Q526.2 229.43 526.43 229.25Q526.55 229.15 526.69 229.07Q527.26 228.73 528.03 228.73Q528.82 228.73 529.4 229.09Q529.52 229.16 529.62 229.25Q529.84 229.42 530.02 229.62Q530.37 230.03 530.58 230.55Q530.66 230.75 530.72 230.95Q530.9 231.56 530.9 232.23Q530.9 232.64 530.83 233.03Q530.75 233.47 530.58 233.89Q530.37 234.43 530.01 234.84Q529.84 235.04 529.62 235.21Q529.52 235.29 529.41 235.36ZM574.53 229.07Q575.1 228.73 575.88 228.73Q576.67 228.73 577.24 229.09Q577.36 229.16 577.47 229.25Q577.68 229.42 577.86 229.62Q578.22 230.03 578.43 230.55Q578.51 230.75 578.57 230.95Q578.74 231.56 578.74 232.23Q578.74 232.64 578.67 233.03Q578.59 233.47 578.43 233.89Q578.21 234.43 577.86 234.84Q577.68 235.04 577.47 235.21Q577.37 235.29 577.25 235.36Q576.68 235.72 575.88 235.72Q575.09 235.72 574.52 235.37Q574.39 235.3 574.27 235.21Q574.05 235.03 573.87 234.82Q573.52 234.42 573.31 233.89Q573.15 233.48 573.07 233.06Q573 232.65 573 232.23Q573 231.55 573.18 230.92Q573.24 230.74 573.31 230.55Q573.52 230.04 573.86 229.64Q574.05 229.43 574.27 229.25Q574.4 229.15 574.53 229.07ZM611.12 231.41L605.92 231.41Q606.03 230.32 606.62 229.62Q606.69 229.54 606.76 229.46Q607.01 229.22 607.29 229.06Q607.86 228.73 608.62 228.73Q608.95 228.73 609.27 228.81Q609.55 228.89 609.81 229.02Q609.92 229.08 610.02 229.15Q610.44 229.42 610.73 229.89Q611.09 230.48 611.12 231.41ZM329.04 235.29Q328.42 235.68 327.55 235.68Q326.75 235.68 326.15 235.33Q326.04 235.27 325.93 235.19Q325.68 235.01 325.48 234.78Q325.14 234.4 324.93 233.9Q324.81 233.6 324.73 233.28Q324.6 232.77 324.6 232.23Q324.6 231.46 324.84 230.78Q324.88 230.66 324.93 230.54Q325.14 230.05 325.48 229.68Q325.68 229.45 325.93 229.27Q326.04 229.18 326.17 229.11Q326.76 228.77 327.55 228.77Q328.41 228.77 329.03 229.16Q329.1 229.21 329.18 229.27Q329.42 229.44 329.61 229.66Q329.96 230.04 330.17 230.54Q330.22 230.66 330.26 230.78Q330.51 231.46 330.51 232.23Q330.51 232.77 330.38 233.28Q330.3 233.6 330.17 233.9Q329.96 234.41 329.6 234.8Q329.41 235.01 329.18 235.19Q329.11 235.24 329.04 235.29ZM635.45 235.29Q634.84 235.68 633.97 235.68Q633.16 235.68 632.56 235.33Q632.45 235.27 632.34 235.19Q632.1 235.01 631.9 234.78Q631.56 234.4 631.35 233.9Q631.22 233.6 631.14 233.28Q631.01 232.77 631.01 232.23Q631.01 231.46 631.26 230.78Q631.3 230.66 631.35 230.54Q631.56 230.05 631.89 229.68Q632.09 229.45 632.34 229.27Q632.46 229.18 632.58 229.11Q633.17 228.77 633.97 228.77Q634.83 228.77 635.44 229.16Q635.52 229.21 635.59 229.27Q635.83 229.44 636.03 229.66Q636.37 230.04 636.59 230.54Q636.64 230.66 636.68 230.78Q636.92 231.46 636.92 232.23Q636.92 232.77 636.79 233.28Q636.71 233.6 636.59 233.9Q636.37 234.41 636.02 234.8Q635.83 235.01 635.59 235.19Q635.53 235.24 635.45 235.29ZM707.68 237.06Q707.91 237.18 708.2 237.18Q708.49 237.18 708.72 237.06Q708.89 236.98 709.03 236.83Q709.19 236.67 709.28 236.47Q709.37 236.26 709.37 236.01Q709.37 235.75 709.27 235.53Q709.19 235.34 709.03 235.18Q708.89 235.03 708.72 234.95Q708.49 234.83 708.2 234.83Q707.9 234.83 707.66 234.95Q707.5 235.04 707.36 235.18Q707.2 235.34 707.12 235.53Q707.03 235.75 707.03 236.01Q707.03 236.21 707.09 236.38Q707.17 236.62 707.36 236.82Q707.5 236.98 707.68 237.06Z" fill="#262626" fill-opacity="1.000000" fill-rule="evenodd"/>
</svg>
